<?xml version="1.0" encoding="utf-8"?>
<!-- Generator: Adobe Illustrator 25.4.1, SVG Export Plug-In . SVG Version: 6.00 Build 0)  -->
<svg version="1.1" xmlns="http://www.w3.org/2000/svg" xmlns:xlink="http://www.w3.org/1999/xlink" x="0px" y="0px"
	 viewBox="0 0 256 256" style="enable-background:new 0 0 256 256;" xml:space="preserve">
<style type="text/css">
	.st0{fill:#FCFC60;}
	.st1{fill:#A16D44;}
	.st2{fill:#FF6F4A;}
	.st3{fill:#608AFC;}
	.st4{display:none;}
	.st5{display:inline;}
	.st6{fill:none;stroke:#000000;stroke-width:0.5464;stroke-miterlimit:10;}
	.st7{fill:#2366D1;}
	.st8{fill:#609DFF;}
	.st9{fill:#A4C7FF;}
	.st10{display:inline;fill:#FCFC60;}
	.st11{clip-path:url(#SVGID_00000070825668902775885320000010336211380780383929_);}
</style>
<g id="图层_2">
	<rect x="-1" y="-347" class="st0" width="258" height="950"/>
	<g>
		<polygon class="st1" points="42.9,189.5 38.7,179 36,169.1 33,164.6 26.9,163.8 21.3,166.3 15.1,177.5 14.1,186.6 13.3,196.4 
			13.3,205.9 16.8,214.4 22.1,219.4 31,222.8 39.3,223.2 45.8,220.1 49.7,217.4 53.4,214.2 53.1,209.9 49.3,200.1 49.4,195 
			47.7,192 		"/>
		<polygon class="st1" points="199.8,195.7 199.8,185.3 199.3,175.8 200.5,172.5 206,169.6 214,168.6 224.5,168.5 231,170.3 
			235.1,176 238.3,183.7 239.8,192.6 239.8,204.3 238.2,214.8 236.2,222.8 232.1,229.6 228.4,233 223.1,233 219.1,229.5 
			213.6,222.1 212.8,211.1 212,202.7 206.4,197.6 		"/>
		<polygon class="st2" points="50.6,173.9 47.2,176.2 46.6,181.3 47.7,186.6 48.3,189.9 49.4,195 49.3,200.1 51.5,205.8 53.5,212 
			57.1,215.4 63,219.5 69.6,222 76.7,221.9 83.2,220.8 92.3,217.3 98.3,213.7 104.6,210.8 111.3,207.5 117.9,203.5 124,204.4 
			132,206 142.3,208.6 152.6,209.3 163,210.5 173.9,210.5 181.1,210.1 188.6,207.9 193.8,205.7 199.3,202.7 199.8,195.7 
			199.3,187.7 199.3,175.8 198.2,168.5 195.8,165.4 188.2,167.2 181.5,169.5 171.2,171.4 159.2,172.1 151.1,172.3 141.1,172.5 
			134,172.3 129,171.2 124.9,170.2 121.3,169.1 119.5,169.6 115.9,174.4 109.2,177.8 101.7,179.9 95.8,181.3 90.9,182.2 82.2,180.2 
			73.3,178.4 65.7,178.4 60.1,177.8 55.7,174.8 		"/>
		<polygon class="st3" points="128.3,35.4 132,30.9 134.7,26.4 140.7,23.7 146.5,22.9 152.6,23.3 157.7,25.9 160.1,30 160.3,33.2 
			157.3,35.4 160.3,39.7 163.2,45.2 163.2,51 161.5,53.5 157.8,55 153.5,52.5 151.3,53.3 149.4,56.4 143.4,60.5 137.2,60.5 
			133.2,55 129.4,46.2 127,41.7 		"/>
		<g>
			<g>
				<g>
					<path d="M129.2,40c0.1-3.5,3.7-7,6-9.5c3.2-3.6,5.2-4.8,10.2-5.3c4.1-0.4,9.1-0.4,11.6,3.5c0.3,0.7,0.7,1.5,1,2.2
						c0.8,1.6,0.4,2.3-1,2.2c-0.5,0.4-1.9,0.5-2.6,1c-1.4,0.9-1.5,3.7,0.5,4c4,0.6,5.1,4.4,6.1,7.9c0.7,2.3,1.9,5.5-1.5,6.8
						c-3.6,1.4-4.9-2.6-6-5c-0.7-1.7-3.7-1.3-4,0.5c-0.6,3.3-0.8,6-3.6,8.3c-4,3.3-8.5,3.1-10.6-2.1c-1-2.7-2.4-5-3.6-7.7
						c-0.9-2.1-2.7-4.1-2.6-6.4c0.2-2.8-4.2-2.8-4.4,0c-0.3,4.7,3.3,8.4,5.2,12.5c1.6,3.5,2.6,8.7,6.7,10.3c3.7,1.5,8-0.4,11-2.6
						c4.6-3.4,5.1-6,5.9-11.2c-1.3,0.2-2.7,0.3-4,0.5c1.6,3.6,3.5,7.1,8,7.4c3.1,0.2,6.4-1.3,7.8-4.1c1.9-4.1-0.5-9-2-12.8
						c-1.6-4.2-2.8-5.8-7.5-6.5c0.2,1.3,0.3,2.7,0.5,4c1.7-1.1,3.7-0.4,5.1-2.2c1.4-1.9,0.8-5.2,0-7.2c-2.2-5.3-6-7-11.3-7.4
						c-5.9-0.5-12.3,0.1-16.4,4.5c-3.8,4.2-9,8.6-9.2,14.6C124.8,42.8,129.2,42.8,129.2,40L129.2,40z"/>
				</g>
			</g>
			<g>
				<g>
					<path d="M127,40c-7.5,0.3-11.4,4.8-14.1,11.5c-3.4,8.1-0.5,16.3-0.5,24.7c0,2.8,4.4,2.8,4.4,0c0-5.7-1.6-11.3-1.3-16.9
						c0.4-6.6,4.2-14.6,11.5-14.9C129.8,44.3,129.9,39.9,127,40L127,40z"/>
				</g>
			</g>
			<g>
				<g>
					<path d="M112.4,71.4c0,9.8,0.8,19.3,1.9,29c1.1,10,0.9,20.2,1.4,30.2c0.4,8.2,1.3,16.4,1.6,24.5c0.2,4.1-1.2,9.9,0.7,13.7
						c0.3,0.7,1.2,1.1,1.9,1.1c0,0,0.1,0,0.1,0c2.8,0,2.8-4.4,0-4.4c0,0-0.1,0-0.1,0c0.6,0.4,1.3,0.7,1.9,1.1
						c-0.7-1.4-0.2-5-0.2-6.7c0-2.3,0.1-4.6-0.1-6.9c-0.8-8.2-0.9-16.5-1.7-24.7c-0.9-9.1-0.3-18.2-1.1-27.2
						c-0.9-10-2.1-19.7-2-29.7C116.8,68.6,112.4,68.6,112.4,71.4L112.4,71.4z"/>
				</g>
			</g>
			<g>
				<g>
					<path d="M46.3,65.6c2-1,4.1-1.9,6.2-2.7c4.2-1.7,8.4-1.3,12.9-1.3c7.6,0,16.5,0,22.5,5.3c4.6,4.1,7.2,10,12,13.9
						c4.2,3.4,9.1,6.9,14.1,8.7c2.6,1,3.8-3.2,1.2-4.2c-6.5-2.4-13.7-7.9-17.6-13.7c-3.5-5.1-7.6-9.6-13.4-12
						c-7.7-3.1-16.5-2.7-24.8-2.5c-5.7,0.1-10.3,2.3-15.4,4.6C41.5,63,43.8,66.8,46.3,65.6L46.3,65.6z"/>
				</g>
			</g>
			<g>
				<g>
					<path d="M34.7,60.1c1.8,0.9,3.8,1.2,5.5,2.1c1.1,0.6,2.5,0.9,3.4,1.7c2.1,1.8,5.2-1.2,3.1-3.1c-1.2-1.1-2.4-1.5-3.8-2.1
						c-0.9-0.4-1.8-1-2.7-1.3c-1.1-0.4-2.3-0.5-3.3-1.1C34.4,55.1,32.2,58.8,34.7,60.1L34.7,60.1z"/>
				</g>
			</g>
			<g>
				<g>
					<path d="M35.7,70c3.1-3.1,6.2-4.4,10.6-4.5c2.8-0.1,2.8-4.4,0-4.4c-5.5,0.1-9.8,1.9-13.7,5.8C30.6,68.9,33.7,72,35.7,70
						L35.7,70z"/>
				</g>
			</g>
			<g>
				<g>
					<path d="M43.1,63.1c-0.2,1.1-0.3,2.2-0.4,3.3c-0.2,1-0.7,1.8-1,2.7c-0.7,1.9-0.8,4-1.5,6c-0.9,2.7,3.3,3.8,4.2,1.2
						c0.6-1.9,0.8-4,1.5-5.9c0.4-1,0.9-1.9,1.1-3c0.2-1,0.2-2,0.4-3.1C47.9,61.5,43.7,60.3,43.1,63.1L43.1,63.1z"/>
				</g>
			</g>
			<g>
				<g>
					<path d="M119.4,113.4c12.8-11.7,30.8-11,47-13.6c6.1-1,12.2-2,18.4-2.7c3.7-0.4,7.6-0.7,11.3-0.2c4.5,0.5,9.4-0.2,13.6,1.5
						c2.6,1.1,3.7-3.2,1.2-4.2c-4.6-1.9-9.9-1.3-14.8-1.7c-3.5-0.3-7.3-0.2-10.8,0.2c-6.7,0.7-13.3,1.8-20,2.9
						c-6.9,1.1-14,1-20.8,2.6c-5.4,1.2-10.8,2-16,3.9c-4.2,1.5-8.9,5.2-12.2,8.2C114.3,112.2,117.4,115.3,119.4,113.4L119.4,113.4z"
						/>
				</g>
			</g>
			<g>
				<g>
					<path d="M210.4,96.6c4.1-3,8.9-4.8,13.4-7.1c1.9-1,1-4.2-1.1-4.1c-0.1,0-0.2,0-0.4,0c-2.8,0.2-2.8,4.6,0,4.4c0.1,0,0.2,0,0.4,0
						c-0.4-1.4-0.7-2.7-1.1-4.1c-4.5,2.3-9.3,4.1-13.4,7.1C205.9,94.4,208.1,98.2,210.4,96.6L210.4,96.6z"/>
				</g>
			</g>
			<g>
				<g>
					<path d="M210.3,97.4c2.7,0,4.9,0.2,7.4,1.4c1.4,0.7,4.5,1.6,5.2,2.3c2.1,1.8,5.2-1.3,3.1-3.1c-0.9-0.8-1.7-1-2.8-1.4
						c-1.6-0.6-3.1-1.6-4.7-2.3c-2.6-1.2-5.4-1.3-8.2-1.4C207.5,93,207.5,97.4,210.3,97.4L210.3,97.4z"/>
				</g>
			</g>
			<g>
				<g>
					<path d="M208.7,95.4c0.1,2.2,1,4.2,1.6,6.3c0.5,2.1,1.1,4.1,1.4,6.3c0.4,2.8,4.6,1.6,4.2-1.2c-0.3-2-0.8-3.8-1.3-5.7
						c-0.5-1.8-1.4-3.8-1.5-5.7C213,92.6,208.6,92.6,208.7,95.4L208.7,95.4z"/>
				</g>
			</g>
			<g>
				<g>
					<path d="M41.2,130c6-0.2,12.4,2.7,18.2,4.1c6,1.4,12.3,1.4,18.1,3.4c14.2,4.8,27.1,12.7,41.1,17.7c2.7,0.9,3.8-3.3,1.2-4.2
						c-14.5-5.2-27.8-13.9-42.7-18.2c-6.1-1.8-12.5-1.8-18.6-3.4c-5.6-1.4-11.4-3.8-17.2-3.7C38.4,125.7,38.4,130.1,41.2,130
						L41.2,130z"/>
				</g>
			</g>
			<g>
				<g>
					<path d="M26.6,122.3c2.1,2,4.6,3.3,7.1,4.6c1.1,0.6,2.2,1.1,3.4,1.5c1.2,0.4,2.2,1.2,3.5,1.5c2.7,0.8,3.9-3.4,1.2-4.2
						c-0.8-0.2-1.6-0.9-2.4-1.2c-1.2-0.4-2.3-0.8-3.4-1.4c-2.2-1.1-4.4-2.2-6.2-3.9C27.6,117.3,24.6,120.4,26.6,122.3L26.6,122.3z"
						/>
				</g>
			</g>
			<g>
				<g>
					<path d="M38,127.3c-0.5,2.3-2.5,3.9-3.4,6.1c-1,2.3-1.8,4.6-2.9,6.8c1.4,0.4,2.7,0.7,4.1,1.1c0-0.1,0-0.2,0-0.4
						c0.3-2.8-4.1-2.8-4.4,0c0,0.1,0,0.2,0,0.4c-0.3,2.2,3.1,2.9,4.1,1.1c1.3-2.4,2.1-4.8,3.2-7.3c1-2.4,3-4,3.6-6.6
						C42.8,125.7,38.6,124.5,38,127.3L38,127.3z"/>
				</g>
			</g>
			<g>
				<g>
					<path d="M26.5,131.1c2.5,0,5.4,0.4,7.9-0.1c1-0.2,1.8-0.7,2.8-1c1.1-0.3,2.2-0.3,3.3-0.5c2.8-0.5,1.6-4.7-1.2-4.2
						c-1.9,0.3-3.6,0.9-5.5,1.3c-2.3,0.6-5,0.2-7.3,0.2C23.7,126.7,23.7,131.1,26.5,131.1L26.5,131.1z"/>
				</g>
			</g>
			<g>
				<g>
					<path d="M122.2,168c4.8-2.1,9.1-4.3,14.2-5.6c5.1-1.3,10.1-2.7,15.3-3.7c7.8-1.6,15.7-3.1,23.6-4.4c6.6-1,14.1-2.1,20.8-1.9
						c5.4,0.2,10.8,0.5,16.3,0.5c5.7,0,11.1,0.1,16.5,2.1c2.6,1,3.8-3.2,1.2-4.2c-10-3.8-21.7-2.1-32.2-2.7
						c-7.9-0.4-16.5,0.8-24.3,2.1c-7.7,1.2-15.3,2.7-22.9,4.3c-5.5,1.1-10.7,2.6-16.2,3.9c-5.2,1.2-9.5,3.8-14.3,5.9
						C117.4,165.3,119.6,169.1,122.2,168L122.2,168z"/>
				</g>
			</g>
			<g>
				<g>
					<path d="M228.4,154.4c3.8,3.1,9,6.1,14,6.6c0.9,0.1,2-0.7,2.1-1.6c0-0.2,0.1-0.3,0.1-0.5c0.5-2.8-3.7-3.9-4.2-1.2
						c0,0.2-0.1,0.3-0.1,0.5c0.7-0.5,1.4-1.1,2.1-1.6c-3.6-0.3-8.2-3-10.9-5.3C229.3,149.5,226.2,152.6,228.4,154.4L228.4,154.4z"/>
				</g>
			</g>
			<g>
				<g>
					<path d="M227.7,153.4c0,2,0,3.9-0.1,5.9c-0.1,1.6,0.1,3.2,1.3,4.3c2,2,5.1-1.1,3.1-3.1c0.1,0.1,0-0.5,0-0.8
						c0-0.5,0.1-1.1,0.1-1.6c0.1-1.6,0-3.2,0-4.7C232.1,150.6,227.7,150.6,227.7,153.4L227.7,153.4z"/>
				</g>
			</g>
			<g>
				<g>
					<path d="M232.1,153.4c0,0.5,0.9-0.3,1.3-0.6c1-0.6,1.9-1.3,2.9-1.9c2.1-1.3,4.2-2.4,6.7-2.4c2.8-0.1,2.8-4.5,0-4.4
						c-3.7,0.1-6.9,1.7-10,3.7c-2,1.3-5.4,2.7-5.2,5.6C227.9,156.2,232.3,156.2,232.1,153.4L232.1,153.4z"/>
				</g>
			</g>
			<g>
				<g>
					<path d="M49.3,186c-0.7-3-0.8-6.7,2.4-8.4c2.3-1.2,3.5,0,5.5,0.8c2.5,1,5.2,2,7.9,2.2c4.6,0.4,8.9,0.2,13.4,1.2
						c3.6,0.8,7.2,2.1,10.8,2.5c6.5,0.8,13.4-2.3,19.6-4c2.9-0.8,5.3-2.1,7.6-4c1.9-1.6,3.1-4,4.9-5.7c2.1-1.9-1-5-3.1-3.1
						c-2.5,2.3-3.9,5.4-7,7.1c-3.9,2.3-9,2.7-13.4,4c-2.4,0.7-4.1,1.5-6.7,1.5c-2.8-0.1-5.5-1-8.2-1.7c-3.7-0.9-7.6-1.8-11.5-2.1
						c-4.9-0.3-9-0.1-13.6-2.2c-2.4-1.1-4.4-1.8-7.1-1c-6.1,2-7.4,8.6-6.1,14.1C45.7,189.9,50,188.7,49.3,186L49.3,186z"/>
				</g>
			</g>
			<g>
				<g>
					<path d="M119,170.6c3.4,1.5,6.7,2.7,10.3,3.5c5.1,1,10.2,0.5,15.4,0.5c10.4-0.1,20.5-0.5,30.9-1.2c4.2-0.3,8-1.5,11.8-3.2
						c1.9-0.9,3.7-1.7,5.8-1.8c2.9,0,3.3,1.5,3.8,4c1,5.7,0.8,11.6,0.8,17.4c0,2.7-0.1,5.3,0,8c0,0.8,0.7,3.7-0.1,4.2
						c-2.3,1.6-0.1,5.3,2.2,3.8c2.6-1.8,2.5-4.5,2.3-7.4c-0.3-6.5,0.4-13,0-19.4c-0.3-3.7-0.2-9.6-2.6-12.6
						c-1.9-2.4-5.7-2.5-8.5-2.1c-5.4,0.9-9.8,4.3-15.4,4.8c-5.6,0.5-11.3,0.3-16.9,0.8c-12.2,1.1-26,2.2-37.5-2.9
						C118.6,165.7,116.4,169.4,119,170.6L119,170.6z"/>
				</g>
			</g>
			<g>
				<g>
					<path d="M45.3,187.7c1.8,3.6,1.2,8.5,1.8,12.4c0.5,3.6,2.2,6.8,3.6,10.1c2.2,5.3,6.6,9,11.9,11.3c6.1,2.8,13.5,3.8,20,1.8
						c3.2-1,6.3-2.1,9.2-3.6c3.8-1.9,7.3-4.7,11.3-6.3c3.5-1.4,6.4-2.4,9.6-4.4c1.6-1,5.1-3.5,6.7-3.6c2.4-0.1,5.1,1.4,7.4,1.9
						c3.9,0.7,7.4,1.5,11.2,2.5c4.6,1.2,9.3,1,14,1.5c8.1,0.9,15.9,1.4,24,1.3c4.1-0.1,7.9-0.9,11.8-2.2c3.6-1.2,7.6-2.5,10.9-4.3
						c2.5-1.4,0.3-5.1-2.2-3.8c-3.4,1.9-8.2,3.5-11.9,4.5c-4.4,1.2-8.4,1.4-12.8,1.4c-7.8,0-15.1-1.2-22.8-1.6
						c-8-0.4-16.5-2.3-24.3-4.4c-3-0.8-5.7-1.7-8.8-0.3c-2.7,1.2-5,3.4-7.6,4.9c-3,1.7-6.5,2.2-9.5,3.9c-3.1,1.7-5.9,3.8-9.1,5.3
						c-7.3,3.5-15.1,5-22.8,2.4c-2.9-1-5-2.6-7.5-4.3c-3-2.1-4.2-4.5-5.7-7.7c-3.1-6.7-1.3-14.4-4.5-20.9
						C47.8,183,44.1,185.2,45.3,187.7L45.3,187.7z"/>
				</g>
			</g>
			<g>
				<g>
					<path d="M16.2,185.5c0.3-5.8,1.7-14.1,6.8-17.7c2.2-1.6,6.4-3,8.9-1.3c2.2,1.5,2.7,5.6,3.2,8c1.4,6.1,3.6,17.9,10.9,19.6
						c2.7,0.6,3.9-3.6,1.2-4.2c-4.9-1.2-7.1-13.4-8-17.4c-1.2-5-2.4-9.7-8-10.9c-13.7-2.8-18.8,13.6-19.4,23.8
						C11.7,188.3,16,188.3,16.2,185.5L16.2,185.5z"/>
				</g>
			</g>
			<g>
				<g>
					<path d="M12,183.8c-0.3,4.5-0.7,8.8-0.7,13.2c0,3.6-0.6,7.6,0,11.2c1.1,6.4,7.4,12.4,13.1,15.1c2.8,1.3,6.2,1.8,9.3,1.9
						c3,0.1,6.8,0.7,9.6-0.6c4.9-2.2,8.2-6.2,11.7-10c1.9-2.1-1.2-5.2-3.1-3.1c-2.6,2.8-4.7,4.9-7.8,7.2c-1.4,1-2.1,1.8-3.9,2.1
						c-1.5,0.3-3.2,0.1-4.7,0.1c-3.5-0.1-7.1-0.3-10.2-2c-2.8-1.6-5.2-3.9-7.2-6.5c-2.5-3.2-2.6-6.2-2.4-10.1
						c0.2-6.2,0.3-12.3,0.7-18.5C16.5,181,12.2,181,12,183.8L12,183.8z"/>
				</g>
			</g>
			<g>
				<g>
					<path d="M200.9,173.6c2.7-3.1,12.1-2.8,15.6-2.8c2.8,0,5.7-0.2,8.5-0.1c4.1,0.1,6.2,2.1,7.8,5.7c2.8,6.3,4.7,11.7,4.7,18.6
						c0,7.4,0.3,14.1-2.1,21.3c-1.9,5.8-6.5,20.8-14.7,11.8c-1.6-1.8-3.5-4.2-4.8-6.3c-1.9-3.2-1.3-6.6-1.2-10.2
						c0.4-10.2-4.2-16.6-14.8-16.9c-2.8-0.1-2.8,4.3,0,4.4c5.2,0.2,9.6,2,10.5,7.8c0.5,3.5-0.4,7.2-0.3,10.8
						c0.1,5.5,5.1,12,9.3,15.3c3.9,3.1,10.3,2.8,13.6-1.1c2.5-2.9,3.9-6.9,5.2-10.5c1.3-3.8,2.8-7.7,3.5-11.7
						c0.7-4.2,0.2-8.6,0.2-12.9c0-4.1,0.1-8.1-1-12.1c-1.1-3.8-2.9-7.4-4.5-11.1c-1-2.4-1.7-3.7-3.8-5.1c-5.5-3.6-13.2-2.6-19.4-2.1
						c-4.4,0.3-12.2,0.3-15.4,4C195.9,172.7,199,175.8,200.9,173.6L200.9,173.6z"/>
				</g>
			</g>
			<g>
				<g>
					<path d="M142.7,33c0-0.2,0.1-0.4,0.1-0.6c0-0.1,0.2-0.4,0.1-0.5c0,0-0.3,0.5-0.1,0.3c0-0.1,0.1-0.1,0.1-0.2
						c0.2-0.3-0.1,0.1-0.1,0.2c0-0.1,0.2-0.2,0.2-0.3c0.8-0.9,0.9-2.3,0-3.1c-0.8-0.8-2.3-0.9-3.1,0c-0.4,0.4-0.7,0.8-1,1.3
						c-0.2,0.5-0.4,1.1-0.5,1.6c-0.1,0.6-0.1,1.1,0.2,1.7c0.3,0.5,0.8,0.9,1.3,1C141,34.8,142.4,34.2,142.7,33L142.7,33z"/>
				</g>
			</g>
			<g>
				<g>
					<path d="M137.5,39.7c0,0.7,0,1.5,0,2.2c0,1.1,1,2.2,2.2,2.2c1.2-0.1,2.2-1,2.2-2.2c0-0.7,0-1.5,0-2.2c0-1.1-1-2.2-2.2-2.2
						C138.5,37.6,137.5,38.5,137.5,39.7L137.5,39.7z"/>
				</g>
			</g>
		</g>
		<g class="st4">
			<g id="XMLID_00000087383878071819052820000009760859274303351968_" class="st5">
				<g>
				</g>
				<g>
					<path class="st6" d="M127.2,39.1c0-0.9-0.1-1.6,0.3-2.5c0.5-1.2,1.6-2.1,2.4-3.1c1.6-2,3.1-4.1,4.9-5.9
						c0.9-0.9,1.6-1.9,2.4-2.7c1-1,1.7-1,3-1.3c2.4-0.5,4.6-1,7.1-1c2.2,0,4.1,0.1,6.2,0.5c1.1,0.2,2.2,0.3,3,1
						c0.8,0.7,1.7,2.2,2.4,3.1c1.2,1.6,1.6,3.8,1.4,5.7c-0.3,2.6-3.4,1.2-4.8,2.6c1.3,0.2,3.2,0.3,4.2,1.3c0.9,0.8,1.3,2.6,1.7,3.7
						c1.2,3,2.6,5.8,2.6,9.1c0,3.6-2.9,5.2-6.3,5.1c-1.7,0-2.9-1-4.1-2.2c-1.3-1.3-1.1-2.6-2-4.1c-0.4,0.6-0.1,1.7-0.1,2.5
						c0,0.9-0.2,1.9-0.5,2.7c-0.7,1.9-3,3.6-4.5,4.9c-1.5,1.2-3,1.6-4.7,2.3c-1.7,0.7-3.9,0.5-5.4-0.6c-0.9-0.7-1.2-1.8-1.7-2.8
						c-0.5-0.9-1.2-1.7-1.5-2.7c-0.2-0.8-0.2-1.5-0.5-2.2c-0.3-0.8-1-1.4-1.4-2.1c-1.1-1.7-1.5-3.7-2.4-5.5
						c-0.4-0.8-1.3-1.3-1.7-2.1c-0.3-0.8-0.1-1.9-0.1-2.7"/>
					<path class="st6" d="M114.6,73.3c0,0.9,0,1.9,0,2.8"/>
					<path class="st6" d="M126.6,42.4c-1.7,0-3.4-0.1-4.9,0.6c-1.3,0.6-2.9,2.6-3.7,3.7c-2,2.7-3.9,6.7-4.4,10.1
						c-0.4,3-0.3,6.9,0.2,9.8c0.3,1.6,0.8,3.1,0.8,4.7"/>
					<path class="st6" d="M114.6,71.3c0,0.7,0,1.3,0,2c0,3.1-0.1,6.2,0,9.3c0.1,1.6,0.6,3,1,4.5c0.4,1.8-0.2,3.7,0.2,5.5
						c0.4,1.8,0.4,3.6,0.4,5.5c0,1.8,0.6,3.2,0.5,4.9c0,1.9-0.1,4,0,5.9c0.1,0.9,0.4,1.4,0.6,2.3c0.2,1,0,2.2,0,3.2
						c0,3.8-0.3,7.7,0,11.5c0.1,1.4,0.6,2.7,0.6,4.2c0,0.8-0.1,1.6,0,2.4c0.1,1.6,0.6,3,0.6,4.7c0,1.3-0.1,2.7,0,4
						c0.1,2,0.6,3.9,0.6,5.8c0,1.1-0.1,2.1,0,3.2c0.1,1.6,0.6,2.9,0.6,4.5c0,1.5-0.2,13.8,0.5,13.1"/>
					<path class="st6" d="M45.6,64.1c0.1-0.1,0.2-0.1,0.2-0.2c0,0,0.1-0.1,0.1-0.1c2.3-1.7,4.4-2.7,7.1-3.7c1.6-0.6,2.8-1,4.5-1
						c1.3,0,2.6,0,3.9,0c3.3,0,6.6,0,10,0c1.5,0,2.7,0.5,4.1,0.6c1.8,0,3.2,0.1,5,0.7c1.6,0.6,3.1,1.3,4.7,1.9
						c1.6,0.6,2.9,1.8,4.3,2.9c1.6,1.3,2.6,2.9,3.9,4.4c0.5,0.6,1.2,1,1.7,1.7c0.6,1,0.8,1.7,1.6,2.6c1.2,1.2,2.1,2.6,3.3,3.8
						c1.4,1.5,3.4,2.6,5.1,3.8c0.9,0.6,1.7,1.3,2.6,1.9c0.8,0.6,1.8,0.8,2.6,1.3c1.4,0.9,2.1,2,3.8,2.3c0,0.1,0.1,0.3,0.1,0.4"/>
					<path class="st6" d="M35.8,58.1c2,1.2,4,2.3,6,3.5c1.2,0.8,2.7,1.5,4,2.3c0,0,0,0,0.1,0c0.6,0.3,1.1,0.7,1.6,1.1
						c0.3,0.2,0.6,0.5,0.8,0.7"/>
					<path class="st6" d="M33.6,70.1c3-3.1,7.7-5.4,12.1-6.2c0.1,0,0.1,0,0.2,0c0.8-0.1,1.6-0.2,2.4-0.3c0.2,0,0.4,0,0.6,0"/>
					<path class="st6" d="M48.3,64.1c-0.3,0.3-0.6,0.6-0.8,0.9c-1.7,2-2.9,4.2-4,6.6c-0.8,1.9-2,3.6-2.6,5.5c-0.3,1-1.4,2.7-1.2,3.8
						"/>
					<path class="st6" d="M119.5,111.4c0.2-0.9,1.5-1.8,2.1-2.3c1.7-1.3,3-2.6,4.8-3.7c1.3-0.8,3.1-2.5,4.6-2.8
						c0.8-0.2,1.7,0.1,2.5-0.1c0.8-0.2,1.2-0.4,2.1-0.4c3.5,0,7-1.4,10.3-2.2c1.3-0.3,2.5-0.4,3.8-0.6c1.3-0.2,2.4-1,3.8-1
						c1.3,0,2.6,0.2,3.8,0c1.6-0.3,2.8-0.5,4.5-0.5c1.5,0,2.8,0.1,4.2-0.3c1.8-0.5,3.7-0.2,5.6-0.3c1.5-0.1,2.6-1,4.1-1.1
						c1-0.1,1.9-0.1,2.9-0.2c1-0.2,1.9-0.3,3-0.3c2.3,0.1,4.2-1.1,6.5-1.1c1.2,0,2.4,0,3.6,0c1.6,0,3.6-0.3,5.2,0.1
						c1.3,0.4,2.4,0.4,3.9,0.4c2.1,0,4.1,0,6.2,0c0.9,0,4.1-0.5,3.5,1.1"/>
					<path class="st6" d="M209.3,94.6c1.9-1.4,3.7-2.4,5.8-3.5c1.3-0.7,2.7-1.2,4-2c1.2-0.7,2.4-1,3.6-1.7c-0.1,0-0.2,0-0.4,0"/>
					<path class="st6" d="M210.4,95.1c2.5,0,4.7,0,7.1,1.1c1.2,0.5,2.4,1.3,3.6,1.8c0.7,0.3,1.3,0.6,2,0.9c0.6,0.2,0.9,0,1.4,0.6"/>
					<path class="st6" d="M211.5,96.8c0,1.8,0.8,3.4,1.1,5.1c0.1,0.9,0.6,1.6,0.8,2.5c0.3,0.9,0.1,1.8,0.3,2.6
						c0.2,0,0.3,0.1,0.5,0.1"/>
					<path class="st6" d="M41.2,127.8c1.2,0,2.6-0.2,3.8,0.1c1.7,0.4,3.1,1.3,4.9,1.5c1.9,0.2,3.8,0.8,5.7,1.4
						c1.8,0.5,3.3,0.7,5.2,0.8c2.3,0.1,4,1.6,6.1,1.7c1.6,0,3,0.3,4.6,0.5c2.8,0.4,5.6,1,8.2,2.2c2.9,1.3,6,2.2,9,3.4
						c3.3,1.4,6.5,2.9,9.8,4.3c3.7,1.6,7.1,3.4,10.6,5.4c1.3,0.7,3.1,1.1,4.6,1.6c1,0.3,1.2,0.5,2,1c0.8,0.4,2,0.3,2.6,1.1
						c-0.1,0-0.2,0.1-0.4,0.1"/>
					<path class="st6" d="M28.2,120.7c1.7,1.7,3.7,2.7,5.8,3.8c1.1,0.6,2.2,1.2,3.4,1.6c0.7,0.2,1.4,0.3,2.1,0.7
						c0.1,0.1,0.2,0.1,0.3,0.2c0.5,0.3,0.9,0.8,1.4,0.8"/>
					<path class="st6" d="M40.1,127.8c-0.3,2.2-2.2,3.8-3.1,5.5c-0.7,1.3-1,2.9-1.5,4.2c-0.5,1.3-1.3,2.4-1.9,3.7c0-0.1,0-0.3,0-0.4
						"/>
					<path class="st6" d="M26.5,128.8c2.2,0,4.5,0,6.8,0c1.3,0,1.9-0.5,3-1c0.8-0.3,2.6-0.3,3.4-0.9c0.1-0.1,0.3-0.2,0.4-0.3"/>
					<path class="st6" d="M123.4,165.3c-0.1,0-0.3-0.1-0.4-0.1c2.6-2.8,6-3.2,9.4-4.3c1.7-0.6,3.5-0.6,5.2-1.2
						c1.4-0.5,2.6-1.2,4-1.5c4-0.8,8.1-1.5,12.1-2.4c1.6-0.3,3.2-0.5,4.7-1c1.9-0.6,3.7-1.5,5.7-1.6c1.4,0,3,0.3,4.4,0
						c1.7-0.3,3.2-1,4.9-1.1c1.9-0.2,3.6-0.5,5.4-1c1.4-0.4,3-0.1,4.4-0.1c2.2,0,4-0.1,6.1-0.5c1.6-0.3,3.3-0.6,4.9-0.6
						c4,0,7.9,0.5,11.9,0.5c3.5,0,6.9,0,10.4,0c4.2,0,8.9,0.6,12.8,2.2"/>
					<path class="st6" d="M229.9,152.8c1.7,1.5,3.8,2.9,5.9,3.7c2.2,0.8,4.2,2.2,6.6,2.3c0-0.2,0.1-0.3,0.1-0.5"/>
					<path class="st6" d="M229.9,153.3c0,1.4,0,2.7,0,4.1c0,1.2-0.6,3.8,0.5,4.6"/>
					<path class="st6" d="M229.9,153.3c-0.4-1.3,1.6-1.9,2.4-2.5c1.1-0.9,2.4-1.6,3.6-2.3c2.2-1.3,4.5-2.3,7.1-2.3"/>
					<path class="st6" d="M47.2,186.5c0-3.3-0.6-7.1,0-10.3c0.6-3.7,6.5-2.2,8.7-0.9c1.6,0.9,2.4,2.8,4.3,3.2c1.5,0.3,3.4,0,4.9,0
						c2,0,3.9,0,5.9,0c1.6,0,3,0.3,4.6,0.6c4.2,0.7,8.2,1.8,12.4,2.9c1.7,0.4,3.5,0.5,5.3,0.4c2.2,0,3.5-1.1,5.5-1.5
						c2.1-0.4,4.1-0.9,6.1-1.6c1.8-0.6,3.7-0.8,5.4-1.3c1.7-0.5,3-1.9,4.5-2.7c2-1.2,3.6-4.6,5.3-6"/>
					<path class="st6" d="M121.5,166.2c0.6,0.6,1.4,0.7,2.2,1.2c0.8,0.5,1.6,1.3,2.4,1.8c1.6,1.1,3.6,2.6,5.5,2.9
						c3.8,0.6,8.3,0,12.2,0c2.3,0,4.6,0,6.9,0c2.3,0,4.8,0.3,7-0.3c3.6-0.9,7.6,0.5,11.2-0.4c3.2-0.8,6.7-0.1,10-1
						c1.5-0.4,3-0.6,4.5-1.2c1.9-0.7,3.7-1.8,5.6-2.6c2.3-0.9,8.6-1.6,9.2,1.6c0.2,1.3,0.7,2.6,1,4c0.1,0.3,0.1,0.6,0.2,0.9
						c0.1,0.8-0.1,1.6,0,2.4c0.2,1.1,0.5,1.9,0.5,3c0.1,4,0,8,0,11.9c0,2.1-0.1,4.1,0,6.2c0,0.3,0,0.5,0,0.8c0,1,1.5,4.8-0.5,5"/>
					<path class="st6" d="M47.8,186.5c0.1,0.6,0.5,1,0.6,1.6c0.1,0.5-0.1,1.1,0,1.6c0.1,1.2,0.7,2,1,3.1c0.6,2.6-0.4,5.5,0.2,8.2
						c0.6,2.4,1.7,4.9,2.6,7.2c0.3,0.6,0.7,1,1,1.6c0.3,0.8,0.2,1.5,0.6,2.2c0.7,1.2,2.3,2.5,3.4,3.3c0.8,0.5,1.5,0.5,2.2,1.2
						c0.6,0.5,1,1.1,1.5,1.6c1.4,1.4,3.1,1.4,4.9,2.1c1.3,0.5,2.5,1.5,3.9,1.7c1.7,0.2,3.6,0,5.3,0c1.3,0,2.5,0,3.8,0
						c0.7,0,1.5,0.1,2.2,0c1-0.2,1.4-0.7,2.3-1.1c1.2-0.6,2.5-0.8,3.8-1.2c0.8-0.2,1.4-0.5,2.2-1c1-0.6,2-0.9,3.1-1.4
						c1.4-0.7,2.6-1.7,4-2.4c1.3-0.6,2.3-1.5,3.5-2.2c2.6-1.5,5.7-1.9,8.3-3.2c1.6-0.8,3.1-2.1,4.8-2.9c1.4-0.7,2.3-1.8,3.5-2.5
						c2.4-1.3,5.3-0.6,7.6,0.3c2.3,1,4.5,1,6.9,1.3c1.4,0.2,2.9,0.6,4.3,1c1.7,0.4,3.5,1.2,5.2,1.5c2.8,0.6,5.7,0.7,8.6,0.7
						c1.3,0,2.4,0.2,3.7,0.4c0.8,0.1,1.5,0,2.3,0.1c1,0.1,1.8,0.5,2.8,0.6c1.9,0.1,3.5,0.5,5.4,0.5c1.4,0,2.9,0,4.3,0
						c3.4,0,6.9,0,10.3,0c1.9,0,3.4-0.4,5.3-0.9c1.9-0.6,3.8-0.9,5.6-1.6c2.6-1.1,5.3-2.5,8-3c0-0.1,0.1-0.3,0.1-0.4"/>
					<path class="st6" d="M14,185.4c0-0.2,0-0.4,0-0.7c0.1-1.3,1-2.6,1.1-3.9c0.1-1.1-0.2-2.4,0-3.5c0.2-1.5,1-3,1.7-4.3
						c0.6-1.2,0.9-2.4,1.6-3.5c2.8-4.6,9.7-7.7,14.7-5c1.4,0.8,2.2,1.8,2.6,3.4c0.3,1.2,0.9,2.4,1.2,3.7c0.5,2.5,1.1,5.1,1.9,7.6
						c0.4,1.2,1,2.4,1.3,3.6c0.1,0.5,0,1.1,0.2,1.6c0.2,0.5,0.8,0.9,1,1.4c1.3,2.7,1.9,5.8,5.4,6.2"/>
					<path class="st6" d="M14,183.8c0,0.3,0,0.7,0,1c0,0.9,0.1,1.7,0,2.6c-0.1,1.3-0.6,2.4-0.6,3.8c0,3.2,0,6.4,0,9.6
						c0,2.7-0.6,6.2,0.4,8.7c1.2,3.4,4.4,6.4,6.9,8.8c1.2,1.2,2.7,1.8,4.1,2.7c1.5,1,3.3,1.1,5,1.5c2.5,0.6,4.9,0.4,7.5,0.4
						c1.3,0,3,0.3,4.2-0.1c0.8-0.3,1.1-1,1.7-1.6c0.7-0.6,1.5-0.8,2.2-1.2c1.2-0.7,2.7-1.6,3.8-2.4c0.6-0.5,3.4-3.1,3.2-3.9
						c-0.2,0-0.3-0.1-0.5-0.1"/>
					<path class="st6" d="M200.6,172.4c0-0.1-0.1-0.2-0.1-0.3c-0.4-2.2,4.5-2.3,5.5-2.6c1-0.2,1.8-0.4,2.9-0.4
						c1.8,0,3.4-0.5,5.2-0.6c2.2-0.1,4.3,0,6.5,0c2.3,0,5.1-0.4,7.4,0.1c1.2,0.3,2.1,1,3.1,1.5c1.7,0.9,2,0.7,2.7,2.6
						c1,2.4,2,4.9,3.1,7.2c0.9,2,1.6,3.9,2.2,6.1c0.8,2.9,0.7,5.8,0.7,8.8c0,2.5,0,5,0,7.6c0,2.2,0.3,4.7-0.1,6.9
						c-0.9,4.5-2.6,8.7-3.9,13.1c-0.7,2.3-2,4.6-3.3,6.6c-0.8,1.4-1.3,2.2-2.9,2.8c-0.9,0.3-1.9,0.8-2.8,1c-2.8,0.5-4.9-0.6-6.7-2.4
						c-1-1-1.7-2-2.5-3.2c-1-1.5-2.4-2.8-3.3-4.3c-0.7-1.1-1.5-2.5-1.6-3.8c-0.2-1.4,0-3,0-4.3c0-3,0.5-6.4,0-9.3
						c-0.4-2.2-2.7-5.6-4.6-6.8c-2.2-1.3-5.3-1.7-7.8-1.7"/>
					<path class="st6" d="M140.8,32.6c-0.2-0.9,0.5-2,1.1-2.7"/>
					<path class="st6" d="M139.7,39.7c0,0.7,0,1.4,0,2.2"/>
				</g>
			</g>
		</g>
	</g>
</g>
<g id="图层_1">
	<g id="图层_1_00000160169305702615894890000015953598490011698304_" class="st4">
		<path class="st7" d="M110.9,128l110.9,64l-110.9,64L0,192L110.9,128z"/>
		<path class="st8" d="M110.9,64l110.9,64l-110.9,64L0,128L110.9,64z"/>
		<path class="st9" d="M110.9,0l110.9,64l-110.9,64L0,64L110.9,0z"/>
		<rect x="-1" y="-347" class="st10" width="258" height="950"/>
		<g class="st5">
			<g>
				<defs>
					<rect id="SVGID_1_" x="-1" y="-1" width="258" height="258"/>
				</defs>
				<clipPath id="SVGID_00000179619125352251014020000002119619421510382245_">
					<use xlink:href="#SVGID_1_"  style="overflow:visible;"/>
				</clipPath>
				<g transform="matrix(1 0 0 1 0 0)" style="clip-path:url(#SVGID_00000179619125352251014020000002119619421510382245_);">
					
						<image style="overflow:visible;enable-background:new    ;" width="3182" height="2121" xlink:href="../../../../../../../../Z00 - 完成/Z30 - 插画/V1-闪念涂鸦- 插画角色-20200625/组 22.png"  transform="matrix(0.1231 0 0 0.1231 -61.0382 -2.5887)">
					</image>
				</g>
			</g>
		</g>
	</g>
	<g id="图层_2_00000121281184796462098010000000246008996498892476_">
	</g>
</g>
</svg>
