<?xml version="1.0" encoding="utf-8"?>
<!-- Generator: Adobe Illustrator 25.4.1, SVG Export Plug-In . SVG Version: 6.00 Build 0)  -->
<svg version="1.1" id="图层_1" xmlns="http://www.w3.org/2000/svg" xmlns:xlink="http://www.w3.org/1999/xlink" x="0px" y="0px"
	 viewBox="0 0 949 256" style="enable-background:new 0 0 949 256;" xml:space="preserve">
<style type="text/css">
	.st0{display:none;fill:#2366D1;}
	.st1{display:none;fill:#609DFF;}
	.st2{display:none;fill:#A4C7FF;}
	.st3{display:none;}
	.st4{display:inline;fill:#333333;}
	.st5{display:inline;}
	.st6{clip-path:url(#SVGID_00000050621952023127110970000013936526075300135063_);}
	.st7{display:none;fill:#A16D44;}
	.st8{display:none;fill:#FF6F4A;}
	.st9{display:none;fill:#608AFC;}
	.st10{fill:none;stroke:#000000;stroke-width:0.5316;stroke-miterlimit:10;}
</style>
<path class="st0" d="M110.9,128l110.9,64l-110.9,64L0,192L110.9,128z"/>
<path class="st1" d="M110.9,64l110.9,64l-110.9,64L0,128L110.9,64z"/>
<path class="st2" d="M110.9,0l110.9,64l-110.9,64L0,64L110.9,0z"/>
<g transform="translate(300, 55.695), scale(0.7)" class="st3">
	<path vector-effect="non-scaling-stroke" class="st4" d="M613.9,10.2v127c0,0.9,0,1.9,0.1,2.8c0.4,8.5,2.6,16.3,6.6,23.3
		c0.4,0.6,0.7,1.2,1.1,1.8c0.9,1.4,1.8,2.8,2.9,4.1c4.5,5.8,10.3,10.6,17.2,14.3c0.6,0.3,1.1,0.6,1.7,0.9c1.6,0.8,3.2,1.5,4.9,2.2
		c7.4,2.9,15.6,4.5,24.5,4.7c0.8,0,1.7,0,2.5,0c0.9,0,1.9,0,2.8,0c9.8-0.3,18.6-2.2,26.6-5.7c0.8-0.4,1.7-0.8,2.5-1.2
		c9.3-4.6,16.6-11,21.9-19.2c0.8-1.2,1.5-2.5,2.2-3.8c3.5-6.7,5.4-14.2,5.7-22.3c0-0.6,0-1.2,0-1.8v-127c0-0.3,0-0.6,0-0.9
		c0.2-2,0.9-3.5,2.1-4.7c0.8-0.7,1.7-1.3,2.7-1.6c0.8-0.3,1.8-0.4,2.8-0.4c1.5,0,2.8,0.3,3.9,0.8c0.6,0.3,1.2,0.7,1.7,1.2
		c1.2,1.2,1.9,2.9,2,4.9c0,0.2,0,0.5,0,0.7v127c0,13.1-3.1,24.7-9.2,35c-0.2,0.3-0.4,0.7-0.6,1c-6.6,10.5-15.7,18.7-27.4,24.6
		c-10.8,5.4-23,8.4-36.5,8.8c-1.1,0-2.2,0-3.3,0c-14.8,0-28.1-2.9-39.8-8.8c-0.9-0.5-1.8-0.9-2.7-1.4c-9.2-5.1-16.7-11.8-22.5-20
		c-0.7-1-1.4-2.1-2.1-3.2c-6.5-10.5-9.7-22.5-9.7-36v-127c0-0.3,0-0.6,0-0.9c0.2-2,0.9-3.5,2.1-4.7c0.8-0.7,1.7-1.3,2.7-1.6
		c0.8-0.3,1.8-0.4,2.8-0.4c1.5,0,2.8,0.3,3.9,0.8c0.6,0.3,1.2,0.7,1.7,1.2c1.2,1.2,1.9,2.9,2,4.9C613.9,9.7,613.9,10,613.9,10.2z
		 M895.5,9c-0.2-0.1-0.4-0.2-0.6-0.3C884.6,2.9,873.4,0,861.2,0c-0.8,0-1.6,0-2.4,0c-11,0.3-20.7,2.3-29.2,6.2
		c-0.5,0.2-1,0.5-1.5,0.7c-8.4,4.1-15,9.8-19.8,17c-5,7.6-7.6,16.3-7.6,26.2c0,13,4.8,24.2,14.4,33.5c0.6,0.6,1.2,1.2,1.8,1.7
		c0.9,0.8,1.7,1.5,2.7,2.2c10,7.9,23.2,13.3,39.4,15.9c0.9,0.1,1.8,0.3,2.6,0.4c14.9,2,26.5,6.4,34.7,13c0.7,0.6,1.4,1.1,2,1.7
		c0.3,0.3,0.6,0.5,0.8,0.8c7.7,7.5,11.6,16.8,11.6,28c0,13.5-4.2,23.9-12.7,31.2c-1.4,1.2-2.9,2.3-4.5,3.3
		c-7.5,4.8-16.9,7.4-28.2,7.6c-0.7,0-1.4,0-2,0c-0.7,0-1.5,0-2.2,0c-10.5-0.2-19.7-2.1-27.6-5.6c-1-0.5-2.1-0.9-3.1-1.5
		c-0.5-0.3-1-0.5-1.5-0.8c-7.2-4-12.9-9.2-17.1-15.7c-0.7-1.1-1.3-2.2-2-3.3c-0.1-0.1-0.1-0.2-0.2-0.4c-1.4-2.7-3.5-4.2-6.2-4.5
		c-0.3,0-0.7-0.1-1-0.1c-0.1,0-0.2,0-0.3,0c-2.2,0.1-4,0.7-5.4,2c-0.2,0.2-0.5,0.5-0.7,0.7c-0.8,1-1.3,2.1-1.4,3.4
		c0,0.3-0.1,0.7-0.1,1s0,0.7,0.1,1c0.1,0.4,0.2,0.8,0.3,1.1s0.2,0.6,0.4,0.9c0.2,0.5,0.5,0.9,0.7,1.4c5.3,9.9,13,17.9,23,24.1
		c0.9,0.5,1.8,1.1,2.7,1.6c11.8,6.6,25.7,9.9,41.7,9.9c10.7,0,20.3-1.7,28.8-5.1c1.4-0.6,2.7-1.2,4.1-1.8c9.5-4.6,16.8-11.3,22-20
		c0.8-1.3,1.5-2.6,2.1-4c3.8-7.8,5.7-16.7,5.7-26.8c0-0.7,0-1.4,0-2.1c-0.4-13.5-4.6-24.7-12.6-33.6c-0.7-0.8-1.5-1.6-2.2-2.3
		c-9.9-9.6-25.6-16.3-47.1-19.8c-0.6-0.1-1.2-0.2-1.8-0.3c-15.5-2.8-27-7.3-34.5-13.5c-0.3-0.3-0.6-0.5-0.9-0.8
		c-7.2-6.3-10.8-14.1-10.8-23.3v-0.1c0-11.4,4-20.2,11.9-26.6c0.3-0.2,0.6-0.5,0.9-0.7c7.5-5.7,17.6-8.6,30.3-8.9c0.7,0,1.3,0,2,0
		c0.3,0,0.6,0,0.9,0c17.8,0.2,31.6,7,41.5,20.2c0.5,0.7,1,1.3,1.4,2c1.5,2.3,3.5,3.5,6.1,3.8c0.3,0,0.7,0.1,1.1,0.1
		c0.2,0,0.4,0,0.6,0c1.1,0,1.9-0.2,2.5-0.5c0,0,0.1,0,0.1-0.1c0.7-0.3,1.3-0.8,1.8-1.2s0.9-0.9,1.3-1.4c0.5-0.8,0.9-1.6,1-2.5
		c0.1-0.4,0.1-0.8,0.1-1.2c0-1.5-0.3-2.9-1-4.1C913.6,22.1,905.9,14.9,895.5,9z M160.3,0.1C159,0,157.7,0,156.4,0
		c-16.6,0-31.9,3.8-46,11.5c-1.5,0.8-2.9,1.6-4.3,2.5c-0.5,0.3-1,0.6-1.6,1c-13.2,8.4-24,19.2-32.4,32.6c-0.8,1.3-1.6,2.6-2.4,4
		c-9,15.7-13.4,32.7-13.4,50.9c0,16.6,3.7,32.2,11.2,46.8c0.7,1.4,1.5,2.9,2.3,4.3c9,15.8,21.2,28.3,36.6,37.6
		c0.5,0.3,1.1,0.6,1.6,0.9c14.9,8.7,31,13,48.3,13c27.3,0,48.3-7.3,63-22c1-1.2,1.6-2.6,1.8-4.4c0-0.3,0-0.6,0-1
		c0-1.8-0.6-3.4-1.7-4.8c-0.2-0.3-0.5-0.6-0.8-0.8l-0.1-0.1c-1.6-1.5-3.4-2.2-5.4-2.2c-0.6,0-1.1,0.1-1.7,0.2
		c-0.4,0.1-0.8,0.3-1.3,0.5c-0.3,0.2-0.6,0.3-0.9,0.5c-15.2,12.5-32.9,18.7-53,18.7c-13.8,0-26.7-3.2-38.7-9.7
		c-1.2-0.7-2.5-1.4-3.7-2.1c-13.1-7.9-23.4-18.5-31-31.9c-6.9-12.2-10.7-25.3-11.3-39.4c-0.1-1.4-0.1-2.8-0.1-4.2
		c0-15.2,3.8-29.5,11.5-42.9c0-0.1,0.1-0.2,0.2-0.3c7.7-13.3,18-23.9,31-31.9c0.9-0.6,1.9-1.1,2.9-1.7c11-6.2,22.7-9.6,35.1-10.2
		c1.4-0.1,2.8-0.1,4.2-0.1c0.1,0,0.3,0,0.4,0c15.6,0.1,28.9,3.2,40,9.5c4,2.2,7.7,4.9,11,7.9c0.2,0.1,0.3,0.3,0.5,0.4
		c2.2,1.8,4.2,2.7,5.9,2.7c0.2,0,0.4,0,0.6,0c1.6-0.1,3-0.6,4.1-1.5c0.3-0.3,0.6-0.6,0.9-0.9c0.1-0.1,0.2-0.2,0.2-0.3
		c1.2-1.6,1.8-3.3,1.8-5.2c0-0.2,0-0.4,0-0.6c-0.1-1.9-0.9-3.4-2.3-4.5l-0.1-0.1C202.3,8.4,182.6,0.9,160.3,0.1z M551.2,198.4
		l-47.1-75.3h-4.6h-41.2v71.7c0,2.2-0.7,4.1-2,5.5s-3.1,2.1-5.3,2.2c-0.1,0-0.2,0-0.3,0c-2.1,0-3.8-0.6-5.2-1.9
		c-0.1-0.1-0.2-0.2-0.3-0.3c-0.3-0.3-0.6-0.7-0.9-1c-0.9-1.2-1.3-2.7-1.3-4.4l0,0V10.2c0-0.3,0-0.6,0-0.9c0.2-2,0.9-3.5,2.1-4.7
		c0.8-0.7,1.7-1.3,2.7-1.6c0.8-0.3,1.8-0.4,2.8-0.4h48.9c12.3,0,23.3,2.6,33,7.7c9,4.7,16.1,11.2,21.5,19.4c0.4,0.7,0.9,1.4,1.3,2.1
		c2.1,3.6,3.9,7.4,5.2,11.4c2,6.2,3,12.9,3,20.1c0,12.6-3.2,23.7-9.5,33.2c-0.7,1-1.4,2-2.1,3c-0.8,1.1-1.7,2.1-2.6,3.2
		c-7.1,8-16,13.7-27,17.2c-0.6,0.2-1.2,0.4-1.8,0.5l44,70.4c1.4,2.4,2,4.4,2,5.9c0,0.3,0,0.6,0,0.8c-0.2,1.2-0.6,2.2-1.4,3
		c-0.2,0.2-0.4,0.4-0.7,0.6c-0.3,0.2-0.5,0.3-0.8,0.5c-1.4,0.7-3.2,1.1-5.5,1.1c-1.6,0-2.8-0.3-3.8-0.8c-0.1-0.1-0.2-0.1-0.3-0.2
		c-0.9-0.6-1.7-1.4-2.5-2.5C551.4,198.8,551.3,198.6,551.2,198.4z M399.1,197.6l-18.9-45.3H276l-19,45.3c-1.1,3.1-3.3,4.7-6.6,4.9
		c-0.2,0-0.4,0-0.5,0c-0.3,0-0.6,0-0.9,0c-1.9-0.2-3.4-0.9-4.5-2.1c-0.1-0.1-0.1-0.1-0.2-0.2c-0.3-0.3-0.5-0.6-0.7-1
		c-0.9-1.3-1.3-2.8-1.3-4.4c0-0.4,0-0.9,0.1-1.3c0.1-0.7,0.3-1.4,0.7-2L320.5,7.9c0.1-0.3,0.2-0.5,0.3-0.8c1.3-2.8,3.4-4.3,6.3-4.5
		c0.3,0,0.5,0,0.8,0s0.7,0,1,0.1c2.9,0.3,5,2.1,6.4,5.3l77.8,183.6c0.5,1,0.8,2.1,0.8,3.3c0,0.4,0,0.9-0.1,1.3
		c-0.3,1.5-1,2.9-2.2,4.1c-0.2,0.2-0.5,0.5-0.8,0.7c-1.2,0.9-2.5,1.5-4,1.6c-0.2,0-0.4,0-0.6,0c-0.3,0-0.6,0-0.9,0
		C402.4,202.2,400.3,200.6,399.1,197.6z M15.4,10.2v184.6c0,2.1-0.6,3.8-1.9,5.2c-0.1,0.1-0.2,0.2-0.3,0.3c-0.3,0.3-0.7,0.6-1,0.9
		c-1.2,0.9-2.7,1.3-4.4,1.3l0,0c-2.1,0-3.8-0.6-5.2-1.9c-0.1-0.1-0.2-0.2-0.3-0.3c-0.3-0.3-0.6-0.7-0.9-1c-1-1.3-1.4-2.7-1.4-4.4
		l0,0V10.2c0-2,0.6-3.8,1.9-5.2C2,4.9,2.1,4.8,2.2,4.7c0.3-0.3,0.7-0.6,1-0.9C4.5,3,5.9,2.6,7.6,2.6l0,0c2.1,0,3.8,0.6,5.2,1.9
		c0.1,0.1,0.2,0.2,0.3,0.3c0.3,0.3,0.6,0.7,0.9,1C14.9,7,15.4,8.5,15.4,10.2L15.4,10.2z M281.9,138.5h92.4L327.9,27.9L281.9,138.5z
		 M458.2,107.8h41.2c7.3,0,14-1.1,20.1-3.4c1.7-0.6,3.4-1.4,5-2.2c0.9-0.4,1.7-0.9,2.5-1.4c5.1-3,9.4-6.9,12.8-11.6
		c0.7-0.9,1.3-1.9,1.9-2.9c3.7-6.1,5.8-12.9,6.2-20.4c0-0.9,0.1-1.8,0.1-2.7c0-8.7-2.1-16.5-6.3-23.4s-9.9-12.3-17.3-16.1
		c-7.3-3.8-15.7-5.8-25.1-5.8h-41.2v89.9H458.2z"/>
</g>
<g class="st3">
	<g class="st5">
		<defs>
			<rect id="SVGID_1_" y="-1" width="949" height="258"/>
		</defs>
		<clipPath id="SVGID_00000043424465455218439680000000301682354498796187_">
			<use xlink:href="#SVGID_1_"  style="overflow:visible;"/>
		</clipPath>
		<g style="clip-path:url(#SVGID_00000043424465455218439680000000301682354498796187_);">
			
				<image style="overflow:visible;enable-background:new    ;" width="3182" height="2121" xlink:href="../../../../../../../../Z00 - 完成/Z30 - 插画/V1-闪念涂鸦- 插画角色-20200625/组 22.png"  transform="matrix(0.1207 0 0 0.1207 -10.6175 0)">
			</image>
			
				<image style="overflow:visible;enable-background:new    ;" width="3182" height="2121" xlink:href="../../../../../../../../Z00 - 完成/Z30 - 插画/V1-闪念涂鸦- 插画角色-20200625/组 22.png"  transform="matrix(0.1207 0 0 0.1207 289.3266 0)">
			</image>
			
				<image style="overflow:visible;enable-background:new    ;" width="3182" height="2121" xlink:href="../../../../../../../../Z00 - 完成/Z30 - 插画/V1-闪念涂鸦- 插画角色-20200625/组 22.png"  transform="matrix(0.1207 0 0 0.1207 589.9343 0)">
			</image>
		</g>
	</g>
</g>
<g>
	<polygon class="st7" points="128.8,187.8 124.7,177.6 122.1,168 119.2,163.6 113.3,162.8 107.8,165.3 101.7,176.1 100.7,185 
		100,194.6 100,203.8 103.4,212 108.6,217 117.2,220.3 125.3,220.6 131.6,217.6 135.5,215 139,211.9 138.7,207.7 135,198.1 
		135.2,193.2 133.5,190.3 	"/>
	<polygon class="st7" points="281.4,193.9 281.4,183.8 281,174.5 282.2,171.2 287.5,168.5 295.3,167.5 305.5,167.4 311.8,169.1 
		315.8,174.7 318.9,182.2 320.4,190.8 320.4,202.3 318.8,212.4 316.8,220.2 312.9,226.8 309.3,230.1 304.1,230.1 300.2,226.8 
		294.9,219.5 294.1,208.8 293.3,200.7 287.9,195.8 	"/>
	<polygon class="st8" points="136.3,172.7 132.9,174.9 132.4,179.9 133.5,185 134,188.2 135.2,193.2 135,198.1 137.1,203.7 
		139.1,209.7 142.6,213.1 148.4,217 154.8,219.4 161.7,219.4 168,218.3 176.8,214.9 182.7,211.3 188.8,208.5 195.4,205.3 
		201.8,201.5 207.7,202.3 215.5,203.8 225.5,206.4 235.5,207.1 245.7,208.3 256.3,208.3 263.3,207.9 270.6,205.8 275.6,203.6 
		281,200.7 281.4,193.9 281,186.1 281,174.5 279.9,167.4 277.6,164.4 270.2,166.1 263.7,168.4 253.6,170.2 242,170.9 234,171.1 
		224.3,171.2 217.5,171.1 212.6,170.1 208.5,169.1 205.1,168 203.3,168.4 199.8,173.2 193.3,176.5 186.1,178.5 180.2,179.9 
		175.5,180.8 167,178.8 158.4,177.1 151,177.1 145.5,176.5 141.3,173.5 	"/>
	<polygon class="st9" points="211.9,37.9 215.5,33.5 218.2,29.1 224,26.6 229.6,25.7 235.5,26.1 240.5,28.6 242.8,32.6 243.1,35.8 
		240.1,37.9 243.1,42.1 245.9,47.5 245.9,53.1 244.1,55.5 240.6,57 236.4,54.5 234.2,55.4 232.4,58.3 226.6,62.3 220.5,62.3 
		216.7,57 212.9,48.4 210.7,44 	"/>
	<g>
		<g>
			<g>
				<path d="M212.8,42.3c0.1-3,3-5.9,4.9-8.1c2.8-3.4,5-5.4,9.5-6.1c4-0.5,9.5-0.9,12.3,2.7c3.1,4,0.3,4.2-2.1,5.7
					c-1.4,0.9-1.4,3.6,0.5,3.9c3.9,0.6,5,4.3,6,7.7c0.7,2.2,1.8,5.3-1.4,6.6c-3.5,1.3-4.8-2.5-5.9-4.9c-0.7-1.6-3.6-1.2-3.9,0.5
					c-0.5,3.2-0.7,5.8-3.5,8.1c-3.9,3.2-8.3,3.1-10.3-2.1c-1-2.6-2.3-4.8-3.5-7.4c-0.9-2-2.6-4-2.5-6.2c0.2-2.7-4.1-2.7-4.3,0
					c-0.3,4.6,3.2,8.1,5.1,12.2c1.6,3.4,2.5,8.5,6.5,10.1c3.6,1.4,7.8-0.4,10.7-2.6c4.5-3.3,4.9-5.9,5.8-10.9
					c-1.3,0.2-2.6,0.3-3.9,0.5c1.6,3.5,3.4,6.9,7.8,7.2c3,0.2,6.3-1.2,7.6-4c1.9-4-0.5-8.7-2-12.5c-1.6-4.1-2.8-5.6-7.3-6.3
					c0.2,1.3,0.3,2.6,0.5,3.9c1.7-1,3.8-0.4,5-2.3c1.3-1.9,0.7-5.1-0.1-6.9c-2.2-5.4-6.3-6.9-11.8-7.3c-3.3-0.2-6.6,0.2-9.8,0.9
					c-3,0.7-4.2,2.1-6.2,4.4c-3.6,3.9-8,7.8-8.1,13.4C208.5,45.1,212.7,45.1,212.8,42.3L212.8,42.3z"/>
			</g>
		</g>
		<g>
			<g>
				<path d="M210.7,42.4c-7.3,0.2-11,4.7-13.7,11.2c-3.3,7.9-0.5,15.9-0.5,24c0,2.7,4.3,2.7,4.3,0c0-5.5-1.6-11-1.2-16.5
					c0.4-6.4,4.1-14.2,11.2-14.5C213.4,46.6,213.4,42.3,210.7,42.4L210.7,42.4z"/>
			</g>
		</g>
		<g>
			<g>
				<path d="M196.5,72.9c0,9.5,0.8,18.8,1.8,28.2c1,9.5,0.8,19.2,1.4,28.8c0.5,8.1,1.3,16.4,1.6,24.5c0.1,4-1.1,9.5,0.7,13.3
					c0.3,0.7,1.1,1,1.8,1.1c0,0,0.1,0,0.1,0c2.7,0.1,2.7-4.1,0-4.3c0,0-0.1,0-0.1,0c0.6,0.4,1.2,0.7,1.8,1.1
					c-0.7-1.5-0.2-4.9-0.2-6.6c0-2.2,0.1-4.4-0.1-6.6c-0.7-8.1-1-16.2-1.7-24.4c-0.7-8.8-0.1-17.7-1.1-26.5c-1-9.5-2-19-1.9-28.6
					C200.7,70.2,196.5,70.2,196.5,72.9L196.5,72.9z"/>
			</g>
		</g>
		<g>
			<g>
				<path d="M132.1,67.3c2-0.9,4-1.9,6-2.7c3.5-1.4,6.9-1.3,10.6-1.3c8.3,0,18-0.5,24.4,5.7c4.4,4.1,6.9,9.9,11.8,13.5
					c4,3,8.4,6.3,13.1,8c2.6,1,3.7-3.2,1.1-4.1c-6.3-2.3-13.4-7.8-17.1-13.3c-3.6-5.3-7.8-9.6-13.8-12c-7.2-2.9-15.7-2.3-23.4-2.2
					c-5.5,0.1-10,2.2-15,4.5C127.5,64.7,129.6,68.4,132.1,67.3L132.1,67.3z"/>
			</g>
		</g>
		<g>
			<g>
				<path d="M120.8,62c1.7,0.9,3.7,1.1,5.4,2c1.1,0.6,2.4,0.9,3.4,1.7c2.1,1.8,5.1-1.2,3-3c-1.2-1-2.3-1.4-3.7-2.1
					c-0.9-0.4-1.7-0.9-2.7-1.2c-1.1-0.4-2.2-0.5-3.2-1.1C120.5,57,118.3,60.7,120.8,62L120.8,62z"/>
			</g>
		</g>
		<g>
			<g>
				<path d="M121.8,71.6c3-3,6.1-4.3,10.3-4.4c2.7-0.1,2.7-4.3,0-4.3c-5.3,0.1-9.5,1.9-13.3,5.6C116.9,70.5,119.9,73.5,121.8,71.6
					L121.8,71.6z"/>
			</g>
		</g>
		<g>
			<g>
				<path d="M129,64.9c-0.2,1.1-0.3,2.1-0.4,3.2c-0.2,1-0.6,1.8-1,2.7c-0.7,1.9-0.8,3.9-1.4,5.8c-0.9,2.6,3.2,3.7,4.1,1.1
					c0.6-1.9,0.7-3.9,1.4-5.7c0.4-1,0.9-1.9,1.1-2.9c0.2-1,0.2-2,0.4-3C133.7,63.3,129.6,62.2,129,64.9L129,64.9z"/>
			</g>
		</g>
		<g>
			<g>
				<path d="M203.3,113.8c12.5-11.5,30.1-10.7,45.9-13.2c5.9-1,11.8-1.9,17.8-2.6c3.6-0.4,7.4-0.5,11-0.2c4.3,0.4,9.2-0.2,13.2,1.5
					c2.5,1,3.6-3.1,1.1-4.1c-4.4-1.8-9.2-1-13.8-1.6c-3.6-0.4-7.5-0.3-11.1,0.1c-6.5,0.7-12.9,1.7-19.3,2.8
					c-7,1.1-14.3,1.1-21.2,2.8c-4.9,1.2-10,1.8-14.7,3.6c-4.1,1.5-8.6,5.1-11.8,8C198.2,112.6,201.2,115.6,203.3,113.8L203.3,113.8z
					"/>
			</g>
		</g>
		<g>
			<g>
				<path d="M291.7,97.4c4-2.9,8.6-4.7,13-6.9c1.8-0.9,1-4.1-1.1-4c-0.1,0-0.2,0-0.3,0c-2.7,0.2-2.7,4.5,0,4.3c0.1,0,0.2,0,0.3,0
					c-0.4-1.3-0.7-2.6-1.1-4c-4.4,2.2-9,4-13,6.9C287.4,95.3,289.5,99,291.7,97.4L291.7,97.4z"/>
			</g>
		</g>
		<g>
			<g>
				<path d="M291.7,98.2c2.6,0,4.8,0.2,7.2,1.4c1.3,0.6,4.3,1.6,5.1,2.2c2.1,1.8,5.1-1.2,3-3c-0.9-0.8-1.7-0.9-2.8-1.3
					c-1.6-0.6-3-1.5-4.5-2.2c-2.6-1.1-5.2-1.3-8-1.3C289,94,289,98.2,291.7,98.2L291.7,98.2z"/>
			</g>
		</g>
		<g>
			<g>
				<path d="M290.2,96.3c0.1,2.1,1,4.1,1.5,6.1c0.5,2.1,1,4,1.3,6.1c0.4,2.7,4.5,1.6,4.1-1.1c-0.3-2-0.7-3.7-1.2-5.6
					c-0.5-1.8-1.4-3.7-1.5-5.5C294.3,93.6,290,93.5,290.2,96.3L290.2,96.3z"/>
			</g>
		</g>
		<g>
			<g>
				<path d="M127.1,130c6.2-0.2,12.7,2.8,18.8,4.2c6,1.4,12.2,1.4,18.1,3.6c13.1,4.9,25.3,11.9,38.4,16.6c2.6,0.9,3.7-3.2,1.1-4.1
					c-13.6-4.9-26.2-12.5-40-17.2c-5.7-1.9-11.8-1.9-17.6-3.3c-6.1-1.5-12.5-4.3-18.8-4.1C124.4,125.8,124.4,130.1,127.1,130
					L127.1,130z"/>
			</g>
		</g>
		<g>
			<g>
				<path d="M112.9,122.5c2,1.9,4.5,3.2,6.9,4.5c1.1,0.6,2.2,1.1,3.3,1.5c1.2,0.4,2.2,1.1,3.4,1.5c2.6,0.8,3.8-3.3,1.1-4.1
					c-0.8-0.2-1.5-0.9-2.4-1.2c-1.2-0.4-2.2-0.8-3.3-1.3c-2.1-1.1-4.3-2.2-6.1-3.8C114,117.6,110.9,120.6,112.9,122.5L112.9,122.5z"
					/>
			</g>
		</g>
		<g>
			<g>
				<path d="M124,127.3c-0.5,2.3-2.4,3.8-3.3,5.9c-0.9,2.3-1.7,4.4-2.9,6.6c1.3,0.4,2.6,0.7,4,1.1c0-0.1,0-0.2,0-0.4
					c0.3-2.7-3.9-2.7-4.3,0c0,0.1,0,0.2,0,0.4c-0.2,2.1,3,2.8,4,1.1c1.2-2.3,2-4.7,3.1-7.1c1-2.3,2.9-3.9,3.5-6.5
					C128.7,125.8,124.6,124.6,124,127.3L124,127.3z"/>
			</g>
		</g>
		<g>
			<g>
				<path d="M112.9,131c2.5,0,5.2,0.4,7.7-0.1c1-0.2,1.8-0.7,2.7-1c1-0.3,2.2-0.3,3.2-0.5c2.7-0.5,1.6-4.6-1.1-4.1
					c-1.9,0.3-3.5,0.8-5.4,1.3c-2.2,0.6-4.9,0.2-7.1,0.2C110.1,126.8,110.1,131,112.9,131L112.9,131z"/>
			</g>
		</g>
		<g>
			<g>
				<path d="M205.9,166.9c4.7-2,8.8-4.2,13.8-5.4c4.7-1.2,9.2-2.5,14-3.5c7-1.4,14-2.6,20.9-4c7-1.4,15.1-2.3,22.4-2.3
					c5.5,0,11,0.5,16.5,0.5c5.5,0,10.8,0.1,16.1,2c2.6,1,3.7-3.1,1.1-4.1c-9.9-3.7-21.4-2.1-31.8-2.6c-7.7-0.4-16.2,0.8-23.8,2.1
					c-7.5,1.3-15.1,2.8-22.6,4.3c-5.4,1.1-10.5,2.5-15.7,3.8c-4.7,1.2-8.7,3.7-13.1,5.5C201.3,164.3,203.5,168,205.9,166.9
					L205.9,166.9z"/>
			</g>
		</g>
		<g>
			<g>
				<path d="M309.3,153.7c3.7,3.1,8.8,6,13.6,6.4c0.8,0.1,1.9-0.7,2.1-1.6c0-0.2,0.1-0.3,0.1-0.5c0.5-2.7-3.6-3.8-4.1-1.1
					c0,0.2-0.1,0.3-0.1,0.5c0.7-0.5,1.4-1,2.1-1.6c-3.5-0.3-7.9-2.9-10.6-5.1C310.2,148.9,307.2,151.9,309.3,153.7L309.3,153.7z"/>
			</g>
		</g>
		<g>
			<g>
				<path d="M308.6,152.7c0,1.9,0,3.8-0.1,5.7c-0.1,1.5,0.1,3.1,1.3,4.2c1.9,1.9,5-1.1,3-3c0.1,0.1,0-0.5,0-0.8c0-0.5,0.1-1,0.1-1.6
					c0.1-1.5,0-3.1,0-4.6C312.9,150,308.6,150,308.6,152.7L308.6,152.7z"/>
			</g>
		</g>
		<g>
			<g>
				<path d="M312.9,152.7c0,0.4,0.9-0.3,1.3-0.6c0.9-0.6,1.8-1.3,2.8-1.8c2.1-1.2,4.1-2.3,6.5-2.4c2.7-0.1,2.7-4.3,0-4.3
					c-3.6,0.1-6.7,1.7-9.7,3.6c-2,1.3-5.3,2.6-5.1,5.4C308.8,155.4,313.1,155.5,312.9,152.7L312.9,152.7z"/>
			</g>
		</g>
		<g>
			<g>
				<path d="M135,184.4c-0.7-2.9-0.8-6.5,2.4-8.2c2-1.1,3.5,0.1,5.4,0.8c2.5,1,5.1,1.9,7.7,2.1c3.8,0.4,7.5,0,11.3,0.8
					c4,0.8,7.9,2.2,12,2.8c6,0.8,11.9-2,17.6-3.4c3.3-0.9,5.7-1.5,8.4-3.7c2.2-1.8,3.5-4.2,5.6-6.2c2-1.9-1-4.9-3-3
					c-2.7,2.6-4.4,5.9-7.9,7.6c-4,1.9-9,2.3-13.3,3.5c-8.3,2.5-16.6-2.3-25-2.7c-2.7-0.1-5.2,0.2-7.9-0.5c-2.1-0.5-3.8-1.5-5.8-2.3
					c-1.9-0.7-3.7-1-5.7-0.3c-5.9,2-7.2,8.3-5.9,13.7C131.6,188.2,135.7,187.1,135,184.4L135,184.4z"/>
			</g>
		</g>
		<g>
			<g>
				<path d="M202.8,169.4c3.3,1.4,6.5,2.7,10,3.4c5,1,9.9,0.5,15,0.4c10.1-0.1,20-0.5,30-1.2c4.1-0.3,7.8-1.4,11.5-3.1
					c1.8-0.8,3.6-1.8,5.7-1.7c2.8,0.1,3.2,1.3,3.7,3.9c1,5.6,0.8,11.3,0.8,17c0,2.6-0.1,5.2,0,7.8c0,0.8,0.7,3.6-0.1,4.1
					c-2.3,1.5-0.1,5.2,2.1,3.7c2.6-1.7,2.4-4.4,2.3-7.2c-0.3-6.3,0.4-12.6,0-18.9c-0.3-3.6-0.2-9.4-2.5-12.3c-1.9-2.4-5.5-2.4-8.2-2
					c-5.3,0.8-9.5,4.1-15,4.6c-5.5,0.5-11,0.2-16.4,0.7c-11.9,1.1-25.3,2.1-36.4-2.8C202.5,164.6,200.3,168.3,202.8,169.4
					L202.8,169.4z"/>
			</g>
		</g>
		<g>
			<g>
				<path d="M131.1,186.1c1.7,3.5,1.2,8.3,1.7,12.1c0.5,3.5,2.1,6.6,3.5,9.9c2,4.7,5.8,8.2,10.4,10.5c6.2,3.1,13.8,4.3,20.7,2.3
					c3.1-0.9,6.1-2,9-3.5c3.4-1.7,6.5-4,9.9-5.6c3.2-1.5,6.3-2.2,9.3-4c1.3-0.8,2.6-1.7,4-2.5c4.3-2.4,5.2-1.3,9.2-0.3
					c8.2,2,16.3,3.3,24.6,4.1c7.8,0.8,15.3,1.4,23.2,1.4c4.5,0,8.4-0.6,12.7-2c3.6-1.2,7.7-2.5,11-4.3c2.4-1.3,0.3-5-2.1-3.7
					c-7.6,4.2-16.4,5.7-24.9,5.7c-7.3,0-14.2-1.2-21.4-1.6c-7.8-0.4-16.1-2.2-23.7-4.3c-2.9-0.8-5.6-1.6-8.5-0.3
					c-2.8,1.3-5.2,3.6-8,5.1c-2.9,1.6-6.3,2.1-9.2,3.8c-3,1.8-5.8,3.7-9,5.1c-7.2,3.3-14.1,4.4-21.7,1.8c-2.9-1-5-2.7-7.6-4.4
					c-2.8-1.8-4-5-5.3-7.9c-2.7-6.3-1.1-13.6-4.1-19.6C133.6,181.5,129.9,183.6,131.1,186.1L131.1,186.1z"/>
			</g>
		</g>
		<g>
			<g>
				<path d="M102.8,183.9c0.3-5.2,1.4-12,5.1-15.9c1.8-2,4.9-3.5,7.7-3.2c3.5,0.3,4.4,3.3,5.2,6.2c1.7,6.4,3.1,19.3,11.1,21.3
					c2.7,0.7,3.8-3.4,1.1-4.1c-3.1-0.8-4-5-5-7.5c-1.5-3.9-2.3-8-3.4-12c-1.3-4.5-3.3-7.7-8.4-8.1c-12.7-1.2-17.1,13.4-17.7,23.4
					C98.4,186.7,102.7,186.7,102.8,183.9L102.8,183.9z"/>
			</g>
		</g>
		<g>
			<g>
				<path d="M98.7,182.2c-0.3,4.3-0.6,8.5-0.7,12.9c0,3.5-0.6,7.4,0,10.9c1,6,6.9,11.7,12.1,14.4c2.9,1.5,6.3,2,9.6,2.1
					c3.1,0.1,7.1,0.7,9.9-0.8c4.4-2.4,7.6-5.9,10.9-9.6c1.8-2-1.2-5-3-3c-2.4,2.7-4.4,4.7-7.4,6.8c-0.8,0.5-1.7,1.7-2.6,2.1
					c-1.4,0.5-3.5,0.3-5,0.2c-4.1-0.1-7.9-0.3-11.5-2.4c-6.1-3.5-8.9-8.9-8.7-15.7c0.2-6,0.3-12,0.7-18
					C103.1,179.5,98.9,179.5,98.7,182.2L98.7,182.2z"/>
			</g>
		</g>
		<g>
			<g>
				<path d="M282.5,172.4c2.5-2.9,11-2.7,14.4-2.8c5.6-0.2,13.4-1.6,16.3,4.3c2.9,5.9,5,11.7,5,18.3c0,6.8,0.5,13.4-1.5,20
					c-1.5,4.9-4,17.4-11.4,15.6c-3-0.7-5.4-5.1-7.1-7.4c-2.2-3.1-2.3-5.9-2.1-9.5c0.2-5.1,0.4-9.4-2.9-13.5c-2.9-3.6-7-4.3-11.4-4.4
					c-2.7-0.1-2.7,4.2,0,4.3c6.9,0.2,10.4,3.7,10.2,10.6c-0.1,3-0.7,6.4-0.1,9.4c0.7,3.3,3,5.8,5,8.4c1.6,2.1,3.1,4.4,5.5,5.6
					c4.6,2.3,10.1,0.3,12.7-3.8c3.8-5.9,6.7-14.2,7.4-21.1c0.4-4.3,0-8.9,0-13.3c0-3.6-0.1-7.2-1.2-10.7c-1.2-3.8-3-7.9-4.7-11.4
					c-1.1-2.2-2-2.9-4.1-4.1c-5.3-2.9-12.9-1.9-18.8-1.4c-4.1,0.3-11.2,0.4-14.1,3.8C277.7,171.4,280.7,174.5,282.5,172.4
					L282.5,172.4z"/>
			</g>
		</g>
		<g>
			<g>
				<path d="M225.9,35.6c0-0.2,0.1-0.4,0.1-0.6c0-0.1,0.2-0.4,0.1-0.4c0,0-0.3,0.5-0.1,0.3c0-0.1,0.1-0.1,0.1-0.2
					c0.2-0.3-0.1,0.1-0.1,0.2c0-0.1,0.2-0.2,0.2-0.3c0.7-0.8,0.9-2.2,0-3c-0.8-0.7-2.2-0.9-3,0c-0.3,0.4-0.7,0.8-0.9,1.3
					c-0.2,0.5-0.4,1-0.5,1.6c-0.1,0.6-0.1,1.1,0.2,1.6c0.3,0.4,0.8,0.9,1.3,1C224.3,37.3,225.7,36.7,225.9,35.6L225.9,35.6z"/>
			</g>
		</g>
		<g>
			<g>
				<path d="M220.8,42.1c0,0.7,0,1.4,0,2.1c0,1.1,1,2.2,2.1,2.1c1.2-0.1,2.1-0.9,2.1-2.1c0-0.7,0-1.4,0-2.1c0-1.1-1-2.2-2.1-2.1
					C221.8,40.1,220.8,40.9,220.8,42.1L220.8,42.1z"/>
			</g>
		</g>
	</g>
	<g class="st3">
		<g id="XMLID_00000087383878071819052820000009760859274303351968_" class="st5">
			<g>
			</g>
			<g>
				<path class="st10" d="M210.8,41.5c0-0.9-0.1-1.6,0.3-2.4c0.5-1.2,1.6-2,2.4-3c1.6-2,3-3.9,4.8-5.7c0.8-0.8,1.5-1.8,2.4-2.6
					c1-0.9,1.6-1,2.9-1.2c2.4-0.5,4.4-0.9,6.9-0.9c2.1,0,4,0.1,6,0.5c1,0.2,2.1,0.3,2.9,1c0.8,0.7,1.7,2.1,2.3,3
					c1.2,1.5,1.6,3.7,1.4,5.6c-0.3,2.5-3.3,1.2-4.6,2.5c1.2,0.2,3.1,0.3,4.1,1.3c0.9,0.8,1.3,2.5,1.7,3.6c1.1,2.9,2.5,5.7,2.5,8.8
					c0,3.5-2.8,5-6.1,5c-1.6,0-2.8-1-4-2.1c-1.3-1.3-1.1-2.6-2-4c-0.4,0.6-0.1,1.7-0.1,2.4c0,0.9-0.2,1.9-0.5,2.7
					c-0.7,1.8-2.9,3.5-4.4,4.7c-1.5,1.2-2.9,1.5-4.6,2.3c-1.6,0.7-3.8,0.5-5.2-0.6c-0.9-0.7-1.1-1.8-1.7-2.7
					c-0.5-0.9-1.2-1.6-1.5-2.6c-0.2-0.7-0.2-1.4-0.5-2.2c-0.3-0.7-0.9-1.4-1.4-2.1c-1-1.7-1.5-3.6-2.4-5.3c-0.4-0.8-1.3-1.3-1.7-2.1
					c-0.3-0.8-0.1-1.9-0.1-2.7"/>
				<path class="st10" d="M198.6,74.8c0,0.9,0,1.8,0,2.7"/>
				<path class="st10" d="M210.3,44.7c-1.6,0-3.3-0.1-4.8,0.6c-1.2,0.6-2.8,2.5-3.6,3.6c-1.9,2.6-3.8,6.5-4.3,9.8
					c-0.4,2.9-0.3,6.7,0.2,9.5c0.3,1.5,0.8,3,0.8,4.6"/>
				<path class="st10" d="M198.6,72.8c0,0.6,0,1.3,0,1.9c0,3-0.1,6,0,9.1c0.1,1.6,0.6,2.9,1,4.4c0.4,1.7-0.2,3.6,0.2,5.3
					c0.4,1.8,0.4,3.5,0.4,5.4c0,1.7,0.5,3.1,0.5,4.7c0,1.9-0.1,3.9,0,5.7c0.1,0.8,0.4,1.4,0.6,2.2c0.2,0.9,0,2.1,0,3.1
					c0,3.7-0.3,7.5,0,11.2c0.1,1.4,0.5,2.6,0.6,4c0,0.8-0.1,1.6,0,2.3c0.1,1.6,0.6,2.9,0.6,4.6c0,1.3-0.1,2.6,0,3.9
					c0.1,1.9,0.6,3.8,0.6,5.7c0,1-0.1,2.1,0,3.1c0.1,1.5,0.6,2.8,0.5,4.3c0,1.5-0.2,13.4,0.5,12.8"/>
				<path class="st10" d="M131.4,65.9c0.1-0.1,0.2-0.1,0.2-0.2c0,0,0.1-0.1,0.1-0.1c2.2-1.7,4.3-2.7,6.9-3.6
					c1.5-0.5,2.7-0.9,4.4-0.9c1.3,0,2.5,0,3.8,0c3.2,0,6.5,0,9.7,0c1.4,0,2.6,0.5,4,0.5c1.8,0,3.2,0.1,4.9,0.6
					c1.6,0.5,3,1.2,4.6,1.8c1.6,0.6,2.8,1.7,4.1,2.8c1.6,1.3,2.5,2.8,3.8,4.3c0.5,0.6,1.2,1,1.6,1.7c0.6,1,0.7,1.7,1.5,2.5
					c1.1,1.2,2.1,2.5,3.2,3.7c1.4,1.5,3.3,2.6,4.9,3.7c0.9,0.6,1.6,1.3,2.5,1.9c0.8,0.6,1.7,0.7,2.5,1.3c1.3,0.9,2,2,3.7,2.2
					c0,0.1,0.1,0.3,0.1,0.4"/>
				<path class="st10" d="M121.9,60c2,1.1,3.9,2.2,5.8,3.4c1.2,0.7,2.6,1.4,3.9,2.2c0,0,0,0,0.1,0c0.6,0.3,1.1,0.7,1.6,1.1
					c0.3,0.2,0.6,0.4,0.8,0.7"/>
				<path class="st10" d="M119.8,71.7c2.9-3,7.5-5.2,11.8-6c0.1,0,0.1,0,0.2,0c0.8-0.1,1.5-0.2,2.3-0.3c0.2,0,0.4,0,0.6,0"/>
				<path class="st10" d="M134.1,65.9c-0.3,0.3-0.6,0.6-0.8,0.9c-1.7,1.9-2.8,4.1-3.9,6.5c-0.8,1.8-1.9,3.5-2.6,5.4
					c-0.3,1-1.4,2.6-1.2,3.7"/>
				<path class="st10" d="M203.4,111.9c0.2-0.8,1.4-1.7,2.1-2.2c1.6-1.2,2.9-2.5,4.6-3.6c1.3-0.8,3-2.4,4.5-2.7
					c0.8-0.1,1.6,0.1,2.4-0.1c0.8-0.2,1.2-0.4,2-0.4c3.4,0,6.8-1.4,10-2.1c1.2-0.3,2.5-0.3,3.7-0.6c1.3-0.2,2.3-1,3.7-1
					c1.2,0,2.5,0.2,3.7,0c1.5-0.3,2.8-0.5,4.4-0.5c1.4,0,2.8,0.1,4.1-0.3c1.8-0.4,3.6-0.2,5.4-0.2c1.4-0.1,2.5-0.9,3.9-1.1
					c1-0.1,1.9-0.1,2.8-0.2c1-0.2,1.8-0.3,2.9-0.3c2.2,0.1,4-1.1,6.3-1.1c1.2,0,2.3,0,3.5,0c1.6,0,3.6-0.3,5.1,0.1
					c1.3,0.4,2.3,0.4,3.8,0.4c2,0,4,0,6,0c0.9,0,4-0.5,3.4,1.1"/>
				<path class="st10" d="M290.7,95.5c1.8-1.4,3.6-2.4,5.6-3.4c1.3-0.7,2.7-1.2,3.9-1.9c1.1-0.6,2.4-1,3.5-1.6c-0.1,0-0.2,0-0.3,0"
					/>
				<path class="st10" d="M291.7,96c2.4,0,4.6,0,6.9,1c1.2,0.5,2.3,1.2,3.6,1.7c0.7,0.3,1.3,0.6,2,0.9c0.6,0.2,0.9,0,1.4,0.6"/>
				<path class="st10" d="M292.8,97.6c0,1.7,0.8,3.3,1.1,5c0.1,0.9,0.5,1.6,0.8,2.4c0.3,0.9,0.1,1.7,0.3,2.6c0.1,0,0.3,0.1,0.4,0.1"
					/>
				<path class="st10" d="M127.2,127.8c1.2,0,2.5-0.2,3.7,0.1c1.7,0.4,3,1.3,4.8,1.5c1.9,0.2,3.7,0.8,5.5,1.3c1.8,0.5,3.2,0.7,5,0.7
					c2.2,0.1,3.9,1.6,6,1.6c1.6,0,2.9,0.3,4.4,0.5c2.7,0.4,5.5,1,8,2.1c2.9,1.3,5.8,2.1,8.7,3.3c3.2,1.3,6.3,2.8,9.5,4.2
					c3.6,1.5,7,3.4,10.4,5.2c1.3,0.7,3,1.1,4.5,1.5c1,0.3,1.1,0.5,2,1c0.7,0.4,2,0.3,2.5,1.1c-0.1,0-0.2,0.1-0.4,0.1"/>
				<path class="st10" d="M114.5,120.9c1.7,1.7,3.6,2.6,5.7,3.7c1.1,0.6,2.1,1.2,3.3,1.6c0.7,0.2,1.4,0.3,2,0.6
					c0.1,0.1,0.2,0.1,0.3,0.2c0.4,0.3,0.8,0.7,1.4,0.8"/>
				<path class="st10" d="M126.1,127.8c-0.3,2.1-2.1,3.7-3.1,5.4c-0.7,1.3-1,2.8-1.5,4.1c-0.5,1.2-1.2,2.4-1.8,3.6
					c0-0.1,0-0.2,0-0.4"/>
				<path class="st10" d="M112.9,128.8c2.2,0,4.4,0,6.6,0c1.2,0,1.8-0.5,3-0.9c0.8-0.3,2.5-0.3,3.4-0.9c0.1-0.1,0.3-0.2,0.3-0.3"/>
				<path class="st10" d="M207.1,164.3c-0.1,0-0.3-0.1-0.4-0.1c2.5-2.7,5.9-3.1,9.1-4.1c1.6-0.5,3.4-0.6,5-1.2
					c1.3-0.5,2.5-1.1,3.9-1.4c3.9-0.7,7.9-1.5,11.8-2.3c1.5-0.3,3.1-0.5,4.6-1c1.8-0.6,3.6-1.5,5.5-1.5c1.3,0,3,0.3,4.3,0
					c1.6-0.3,3.1-0.9,4.8-1.1c1.8-0.2,3.6-0.5,5.2-0.9c1.3-0.4,2.9-0.1,4.3-0.1c2.1,0,3.9-0.1,6-0.5c1.6-0.3,3.2-0.6,4.8-0.6
					c3.9,0,7.7,0.5,11.6,0.5c3.4,0,6.8,0,10.1,0c4.1,0,8.6,0.5,12.4,2.1"/>
				<path class="st10" d="M310.8,152.1c1.7,1.4,3.7,2.8,5.7,3.6c2.1,0.8,4.1,2.1,6.4,2.2c0-0.2,0.1-0.3,0.1-0.5"/>
				<path class="st10" d="M310.8,152.6c0,1.3,0,2.6,0,4c0,1.2-0.5,3.7,0.5,4.5"/>
				<path class="st10" d="M310.8,152.6c-0.4-1.2,1.6-1.8,2.3-2.4c1.1-0.8,2.3-1.5,3.5-2.2c2.1-1.3,4.4-2.3,6.9-2.2"/>
				<path class="st10" d="M133,184.9c0-3.2-0.6-6.9,0-10.1c0.6-3.6,6.3-2.1,8.5-0.9c1.6,0.8,2.3,2.7,4.2,3.1c1.4,0.3,3.3,0,4.8,0
					c1.9,0,3.8,0,5.7,0c1.6,0,2.9,0.3,4.5,0.5c4.1,0.6,8,1.8,12,2.8c1.7,0.4,3.4,0.4,5.1,0.4c2.1,0,3.4-1.1,5.3-1.5
					c2-0.4,4-0.9,6-1.6c1.7-0.6,3.6-0.8,5.3-1.3c1.7-0.5,2.9-1.8,4.4-2.7c1.9-1.1,3.5-4.5,5.2-5.8"/>
				<path class="st10" d="M205.3,165.2c0.6,0.6,1.4,0.7,2.1,1.2c0.8,0.5,1.5,1.2,2.3,1.8c1.5,1.1,3.5,2.5,5.4,2.8
					c3.7,0.6,8,0,11.8,0c2.2,0,4.4,0,6.7,0c2.2,0,4.7,0.3,6.8-0.3c3.5-0.9,7.4,0.5,10.9-0.4c3.1-0.8,6.5-0.1,9.7-1
					c1.5-0.4,2.9-0.5,4.4-1.1c1.8-0.7,3.6-1.8,5.4-2.5c2.2-0.9,8.4-1.5,9,1.6c0.2,1.3,0.7,2.6,0.9,3.9c0.1,0.3,0.1,0.6,0.2,0.9
					c0.1,0.8-0.1,1.6,0,2.4c0.2,1.1,0.5,1.8,0.5,2.9c0.1,3.9,0,7.7,0,11.6c0,2-0.1,4,0,6c0,0.3,0,0.5,0,0.8c0,1,1.5,4.7-0.5,4.9"/>
				<path class="st10" d="M133.5,184.9c0.1,0.6,0.5,1,0.6,1.6c0.1,0.5-0.1,1.1,0,1.6c0.1,1.2,0.7,1.9,1,3c0.6,2.6-0.4,5.4,0.2,7.9
					c0.6,2.3,1.6,4.8,2.5,7c0.2,0.6,0.7,1,1,1.5c0.3,0.7,0.2,1.4,0.6,2.2c0.7,1.2,2.2,2.5,3.3,3.2c0.8,0.5,1.4,0.5,2.1,1.1
					c0.5,0.4,1,1,1.5,1.5c1.4,1.3,3,1.4,4.8,2.1c1.3,0.5,2.4,1.4,3.8,1.6c1.6,0.2,3.5,0,5.1,0c1.2,0,2.5,0,3.7,0
					c0.7,0,1.5,0.1,2.1,0c1-0.2,1.4-0.7,2.2-1.1c1.2-0.6,2.5-0.8,3.7-1.2c0.8-0.2,1.4-0.5,2.1-0.9c1-0.6,2-0.9,3-1.4
					c1.4-0.6,2.5-1.7,3.9-2.3c1.3-0.6,2.2-1.5,3.4-2.1c2.5-1.4,5.6-1.9,8.1-3.1c1.6-0.8,3-2,4.6-2.8c1.3-0.6,2.2-1.7,3.4-2.4
					c2.3-1.3,5.2-0.6,7.4,0.3c2.3,0.9,4.4,0.9,6.7,1.3c1.4,0.2,2.8,0.6,4.1,0.9c1.7,0.4,3.4,1.2,5,1.5c2.7,0.5,5.5,0.7,8.3,0.6
					c1.3,0,2.3,0.2,3.6,0.4c0.8,0.1,1.5,0,2.2,0.1c0.9,0.1,1.7,0.5,2.7,0.6c1.8,0.1,3.5,0.5,5.3,0.5c1.4,0,2.8,0,4.2,0
					c3.4,0,6.7,0,10.1,0c1.9,0,3.3-0.4,5.1-0.9c1.8-0.6,3.7-0.9,5.4-1.6c2.5-1,5.2-2.5,7.8-2.9c0-0.1,0.1-0.3,0.1-0.4"/>
				<path class="st10" d="M100.7,183.9c0-0.2,0-0.4,0-0.6c0.1-1.2,1-2.5,1.1-3.8c0.1-1.1-0.2-2.3,0-3.4c0.2-1.4,1-2.9,1.6-4.2
					c0.6-1.1,0.9-2.4,1.6-3.4c2.7-4.5,9.4-7.5,14.3-4.9c1.4,0.7,2.1,1.8,2.5,3.3c0.3,1.2,0.9,2.4,1.1,3.6c0.5,2.5,1.1,5,1.9,7.4
					c0.4,1.2,1,2.3,1.2,3.5c0.1,0.5,0,1.1,0.2,1.6c0.2,0.5,0.7,0.9,1,1.4c1.2,2.6,1.8,5.6,5.3,6"/>
				<path class="st10" d="M100.7,182.3c0,0.3,0,0.6,0,1c0,0.8,0.1,1.7,0,2.5c-0.1,1.3-0.6,2.3-0.5,3.7c0,3.1,0,6.2,0,9.4
					c0,2.6-0.5,6,0.4,8.5c1.2,3.3,4.2,6.2,6.8,8.6c1.2,1.1,2.6,1.8,4,2.7c1.5,1,3.2,1.1,4.9,1.4c2.4,0.5,4.8,0.4,7.3,0.4
					c1.2,0,3,0.3,4.1-0.1c0.8-0.3,1.1-1,1.7-1.5c0.7-0.6,1.4-0.7,2.2-1.2c1.2-0.7,2.6-1.5,3.7-2.4c0.5-0.5,3.3-3,3.1-3.8
					c-0.2,0-0.3-0.1-0.5-0.1"/>
				<path class="st10" d="M282.2,171.2c0-0.1-0.1-0.2-0.1-0.3c-0.4-2.1,4.4-2.3,5.4-2.5c1-0.2,1.7-0.4,2.8-0.4c1.8,0,3.3-0.5,5-0.5
					c2.1-0.1,4.2,0,6.3,0c2.3,0,4.9-0.4,7.2,0.1c1.2,0.3,2,0.9,3,1.5c1.6,0.9,1.9,0.7,2.7,2.5c1,2.3,2,4.7,3,7
					c0.9,1.9,1.6,3.8,2.1,5.9c0.7,2.9,0.7,5.6,0.7,8.6c0,2.5,0,4.9,0,7.4c0,2.2,0.3,4.6-0.1,6.7c-0.8,4.4-2.5,8.5-3.8,12.7
					c-0.7,2.2-2,4.5-3.2,6.5c-0.8,1.4-1.3,2.1-2.8,2.7c-0.9,0.3-1.9,0.7-2.8,0.9c-2.7,0.5-4.8-0.5-6.6-2.4c-1-1-1.7-2-2.4-3.1
					c-1-1.4-2.3-2.7-3.2-4.2c-0.7-1.1-1.4-2.5-1.6-3.7c-0.2-1.3,0-2.9,0-4.2c0-2.9,0.5-6.2,0-9.1c-0.4-2.2-2.6-5.5-4.5-6.6
					c-2.1-1.3-5.2-1.6-7.6-1.6"/>
				<path class="st10" d="M224,35.2c-0.1-0.9,0.5-2,1.1-2.6"/>
				<path class="st10" d="M223,42c0,0.7,0,1.4,0,2.1"/>
			</g>
		</g>
	</g>
</g>
<g>
	<polygon class="st7" points="391.5,187.9 387.4,177.7 384.8,168 382,163.7 376,162.9 370.5,165.4 364.5,176.2 363.5,185.1 
		362.8,194.7 362.8,203.8 366.2,212.1 371.3,217 380,220.3 388,220.7 394.4,217.6 398.2,215.1 401.8,211.9 401.4,207.8 397.8,198.2 
		397.9,193.2 396.3,190.4 	"/>
	<polygon class="st7" points="544.2,194 544.2,183.8 543.8,174.6 544.9,171.3 550.2,168.6 558.1,167.6 568.2,167.5 574.5,169.2 
		578.5,174.8 581.7,182.3 583.1,190.9 583.1,202.3 581.6,212.5 579.6,220.3 575.7,226.9 572,230.2 566.9,230.2 563,226.8 
		557.7,219.6 556.9,208.9 556.1,200.8 550.6,195.8 	"/>
	<polygon class="st8" points="399.1,172.8 395.7,175 395.2,180 396.3,185.1 396.8,188.3 397.9,193.2 397.8,198.2 399.9,203.7 
		401.9,209.8 405.4,213.2 411.2,217.1 417.6,219.5 424.5,219.5 430.8,218.4 439.6,214.9 445.4,211.4 451.6,208.6 458.1,205.4 
		464.6,201.5 470.4,202.4 478.2,203.9 488.3,206.5 498.3,207.2 508.4,208.4 519,208.4 526,208 533.3,205.8 538.4,203.7 543.7,200.8 
		544.2,194 543.8,186.1 543.8,174.6 542.6,167.5 540.4,164.4 532.9,166.2 526.4,168.5 516.4,170.3 504.7,171 496.8,171.1 
		487.1,171.3 480.2,171.1 475.3,170.1 471.3,169.2 467.9,168 466.1,168.5 462.6,173.3 456,176.5 448.8,178.6 443,180 438.2,180.8 
		429.8,178.9 421.1,177.1 413.7,177.1 408.2,176.6 404,173.6 	"/>
	<polygon class="st9" points="474.6,38 478.2,33.6 480.9,29.2 486.7,26.6 492.3,25.8 498.3,26.2 503.3,28.7 505.6,32.7 505.8,35.9 
		502.9,38 505.8,42.2 508.6,47.5 508.6,53.2 506.9,55.6 503.4,57 499.1,54.6 497,55.4 495.1,58.4 489.4,62.4 483.3,62.4 479.4,57 
		475.7,48.5 473.4,44.1 	"/>
	<g>
		<g>
			<g>
				<path d="M475.5,42.4c0.1-3,3-5.9,4.9-8.1c2.8-3.4,5-5.4,9.5-6.1c4-0.5,9.5-0.9,12.3,2.7c3.1,4,0.3,4.2-2.1,5.7
					c-1.4,0.9-1.4,3.6,0.5,3.9c3.9,0.6,5,4.3,6,7.7c0.7,2.2,1.8,5.3-1.4,6.6c-3.5,1.3-4.8-2.5-5.9-4.9c-0.7-1.6-3.6-1.2-3.9,0.5
					c-0.5,3.2-0.7,5.8-3.5,8.1c-3.9,3.2-8.3,3.1-10.3-2.1c-1-2.6-2.3-4.8-3.5-7.4c-0.9-2-2.6-4-2.5-6.2c0.2-2.7-4.1-2.7-4.3,0
					c-0.3,4.6,3.2,8.1,5.1,12.2c1.6,3.4,2.5,8.5,6.5,10.1c3.6,1.4,7.8-0.4,10.7-2.6c4.5-3.3,4.9-5.9,5.8-10.9
					c-1.3,0.2-2.6,0.3-3.9,0.5c1.6,3.5,3.4,6.9,7.8,7.2c3,0.2,6.3-1.2,7.6-4c1.9-4-0.5-8.7-2-12.5c-1.6-4.1-2.8-5.6-7.3-6.3
					c0.2,1.3,0.3,2.6,0.5,3.9c1.7-1,3.8-0.4,5-2.3c1.3-1.9,0.7-5.1-0.1-6.9c-2.2-5.4-6.3-6.9-11.8-7.3c-3.3-0.2-6.6,0.2-9.8,0.9
					c-3,0.7-4.2,2.1-6.2,4.4c-3.6,3.9-8,7.8-8.1,13.4C471.2,45.2,475.5,45.2,475.5,42.4L475.5,42.4z"/>
			</g>
		</g>
		<g>
			<g>
				<path d="M473.4,42.5c-7.3,0.2-11,4.7-13.7,11.2c-3.3,7.9-0.5,15.9-0.5,24c0,2.7,4.3,2.7,4.3,0c0-5.5-1.6-11-1.2-16.5
					c0.4-6.4,4.1-14.2,11.2-14.5C476.1,46.6,476.2,42.4,473.4,42.5L473.4,42.5z"/>
			</g>
		</g>
		<g>
			<g>
				<path d="M459.2,73c0,9.5,0.8,18.8,1.8,28.2c1,9.5,0.8,19.2,1.4,28.8c0.5,8.1,1.3,16.4,1.6,24.5c0.1,4-1.1,9.5,0.7,13.3
					c0.3,0.7,1.1,1,1.8,1.1c0,0,0.1,0,0.1,0c2.7,0.1,2.7-4.1,0-4.3c0,0-0.1,0-0.1,0c0.6,0.4,1.2,0.7,1.8,1.1
					c-0.7-1.5-0.2-4.9-0.2-6.6c0-2.2,0.1-4.4-0.1-6.6c-0.7-8.1-1-16.2-1.7-24.4c-0.7-8.8-0.1-17.7-1.1-26.5c-1-9.5-2-19-1.9-28.6
					C463.5,70.3,459.2,70.3,459.2,73L459.2,73z"/>
			</g>
		</g>
		<g>
			<g>
				<path d="M394.9,67.3c2-0.9,4-1.9,6-2.7c3.5-1.4,6.9-1.3,10.6-1.3c8.3,0,18-0.5,24.4,5.7c4.4,4.1,6.9,9.9,11.8,13.5
					c4,3,8.4,6.3,13.1,8c2.6,1,3.7-3.2,1.1-4.1c-6.3-2.3-13.4-7.8-17.1-13.3c-3.6-5.3-7.8-9.6-13.8-12c-7.2-2.9-15.7-2.3-23.4-2.2
					c-5.5,0.1-10,2.2-15,4.5C390.2,64.8,392.4,68.5,394.9,67.3L394.9,67.3z"/>
			</g>
		</g>
		<g>
			<g>
				<path d="M383.5,62c1.7,0.9,3.7,1.1,5.4,2c1.1,0.6,2.4,0.9,3.4,1.7c2.1,1.8,5.1-1.2,3-3c-1.2-1-2.3-1.4-3.7-2.1
					c-0.9-0.4-1.7-0.9-2.7-1.2c-1.1-0.4-2.2-0.5-3.2-1.1C383.3,57.1,381.1,60.8,383.5,62L383.5,62z"/>
			</g>
		</g>
		<g>
			<g>
				<path d="M384.6,71.6c3-3,6.1-4.3,10.3-4.4c2.7-0.1,2.7-4.3,0-4.3c-5.3,0.1-9.5,1.9-13.3,5.6C379.6,70.6,382.6,73.6,384.6,71.6
					L384.6,71.6z"/>
			</g>
		</g>
		<g>
			<g>
				<path d="M391.7,64.9c-0.2,1.1-0.3,2.1-0.4,3.2c-0.2,1-0.6,1.8-1,2.7c-0.7,1.9-0.8,3.9-1.4,5.8c-0.9,2.6,3.2,3.7,4.1,1.1
					c0.6-1.9,0.7-3.9,1.4-5.7c0.4-1,0.9-1.9,1.1-2.9c0.2-1,0.2-2,0.4-3C396.4,63.4,392.3,62.2,391.7,64.9L391.7,64.9z"/>
			</g>
		</g>
		<g>
			<g>
				<path d="M466,113.9c12.5-11.5,30.1-10.7,45.9-13.2c5.9-1,11.8-1.9,17.8-2.6c3.6-0.4,7.4-0.5,11-0.2c4.3,0.4,9.2-0.2,13.2,1.5
					c2.5,1,3.6-3.1,1.1-4.1c-4.4-1.8-9.2-1-13.8-1.6c-3.6-0.4-7.5-0.3-11.1,0.1c-6.5,0.7-12.9,1.7-19.3,2.8
					c-7,1.1-14.3,1.1-21.2,2.8c-4.9,1.2-10,1.8-14.7,3.6c-4.1,1.5-8.6,5.1-11.8,8C461,112.7,464,115.7,466,113.9L466,113.9z"/>
			</g>
		</g>
		<g>
			<g>
				<path d="M554.5,97.5c4-2.9,8.6-4.7,13-6.9c1.8-0.9,1-4.1-1.1-4c-0.1,0-0.2,0-0.3,0c-2.7,0.2-2.7,4.5,0,4.3c0.1,0,0.2,0,0.3,0
					c-0.4-1.3-0.7-2.6-1.1-4c-4.4,2.2-9,4-13,6.9C550.1,95.4,552.3,99.1,554.5,97.5L554.5,97.5z"/>
			</g>
		</g>
		<g>
			<g>
				<path d="M554.5,98.3c2.6,0,4.8,0.2,7.2,1.4c1.3,0.6,4.3,1.6,5.1,2.2c2.1,1.8,5.1-1.2,3-3c-0.9-0.8-1.7-0.9-2.8-1.3
					c-1.6-0.6-3-1.5-4.5-2.2c-2.6-1.1-5.2-1.3-8-1.3C551.7,94,551.7,98.3,554.5,98.3L554.5,98.3z"/>
			</g>
		</g>
		<g>
			<g>
				<path d="M552.9,96.4c0.1,2.1,1,4.1,1.5,6.1c0.5,2.1,1,4,1.3,6.1c0.4,2.7,4.5,1.6,4.1-1.1c-0.3-2-0.7-3.7-1.2-5.6
					c-0.5-1.8-1.4-3.7-1.5-5.5C557,93.6,552.8,93.6,552.9,96.4L552.9,96.4z"/>
			</g>
		</g>
		<g>
			<g>
				<path d="M389.9,130.1c6.2-0.2,12.7,2.8,18.8,4.2c6,1.4,12.2,1.4,18.1,3.6c13.1,4.9,25.3,11.9,38.4,16.6c2.6,0.9,3.7-3.2,1.1-4.1
					c-13.6-4.9-26.2-12.5-40-17.2c-5.7-1.9-11.8-1.9-17.6-3.3c-6.1-1.5-12.5-4.3-18.8-4.1C387.2,125.9,387.2,130.1,389.9,130.1
					L389.9,130.1z"/>
			</g>
		</g>
		<g>
			<g>
				<path d="M375.7,122.6c2,1.9,4.5,3.2,6.9,4.5c1.1,0.6,2.2,1.1,3.3,1.5c1.2,0.4,2.2,1.1,3.4,1.5c2.6,0.8,3.8-3.3,1.1-4.1
					c-0.8-0.2-1.5-0.9-2.4-1.2c-1.2-0.4-2.2-0.8-3.3-1.3c-2.1-1.1-4.3-2.2-6.1-3.8C376.7,117.7,373.7,120.7,375.7,122.6L375.7,122.6
					z"/>
			</g>
		</g>
		<g>
			<g>
				<path d="M386.8,127.4c-0.5,2.3-2.4,3.8-3.3,5.9c-0.9,2.3-1.7,4.4-2.9,6.6c1.3,0.4,2.6,0.7,4,1.1c0-0.1,0-0.2,0-0.4
					c0.3-2.7-3.9-2.7-4.3,0c0,0.1,0,0.2,0,0.4c-0.2,2.1,3,2.8,4,1.1c1.2-2.3,2-4.7,3.1-7.1c1-2.3,2.9-3.9,3.5-6.5
					C391.5,125.8,387.4,124.7,386.8,127.4L386.8,127.4z"/>
			</g>
		</g>
		<g>
			<g>
				<path d="M375.6,131.1c2.5,0,5.2,0.4,7.7-0.1c1-0.2,1.8-0.7,2.7-1c1-0.3,2.2-0.3,3.2-0.5c2.7-0.5,1.6-4.6-1.1-4.1
					c-1.9,0.3-3.5,0.8-5.4,1.3c-2.2,0.6-4.9,0.2-7.1,0.2C372.9,126.9,372.9,131.1,375.6,131.1L375.6,131.1z"/>
			</g>
		</g>
		<g>
			<g>
				<path d="M468.7,167c4.7-2,8.8-4.2,13.8-5.4c4.7-1.2,9.2-2.5,14-3.5c7-1.4,14-2.6,20.9-4c7-1.4,15.1-2.3,22.4-2.3
					c5.5,0,11,0.5,16.5,0.5c5.5,0,10.8,0.1,16.1,2c2.6,1,3.7-3.1,1.1-4.1c-9.9-3.7-21.4-2.1-31.8-2.6c-7.7-0.4-16.2,0.8-23.8,2.1
					c-7.5,1.3-15.1,2.8-22.6,4.3c-5.4,1.1-10.5,2.5-15.7,3.8c-4.7,1.2-8.7,3.7-13.1,5.5C464.1,164.4,466.2,168,468.7,167L468.7,167z
					"/>
			</g>
		</g>
		<g>
			<g>
				<path d="M572,153.8c3.7,3.1,8.8,6,13.6,6.4c0.8,0.1,1.9-0.7,2.1-1.6c0-0.2,0.1-0.3,0.1-0.5c0.5-2.7-3.6-3.8-4.1-1.1
					c0,0.2-0.1,0.3-0.1,0.5c0.7-0.5,1.4-1,2.1-1.6c-3.5-0.3-7.9-2.9-10.6-5.1C572.9,149,569.9,152,572,153.8L572,153.8z"/>
			</g>
		</g>
		<g>
			<g>
				<path d="M571.4,152.8c0,1.9,0,3.8-0.1,5.7c-0.1,1.5,0.1,3.1,1.3,4.2c1.9,1.9,5-1.1,3-3c0.1,0.1,0-0.5,0-0.8c0-0.5,0.1-1,0.1-1.6
					c0.1-1.5,0-3.1,0-4.6C575.6,150.1,571.4,150.1,571.4,152.8L571.4,152.8z"/>
			</g>
		</g>
		<g>
			<g>
				<path d="M575.6,152.8c0,0.4,0.9-0.3,1.3-0.6c0.9-0.6,1.8-1.3,2.8-1.8c2.1-1.2,4.1-2.3,6.5-2.4c2.7-0.1,2.7-4.3,0-4.3
					c-3.6,0.1-6.7,1.7-9.7,3.6c-2,1.3-5.3,2.6-5.1,5.4C571.6,155.5,575.8,155.5,575.6,152.8L575.6,152.8z"/>
			</g>
		</g>
		<g>
			<g>
				<path d="M397.8,184.5c-0.7-2.9-0.8-6.5,2.4-8.2c2-1.1,3.5,0.1,5.4,0.8c2.5,1,5.1,1.9,7.7,2.1c3.8,0.4,7.5,0,11.3,0.8
					c4,0.8,7.9,2.2,12,2.8c6,0.8,11.9-2,17.6-3.4c3.3-0.9,5.7-1.5,8.4-3.7c2.2-1.8,3.5-4.2,5.6-6.2c2-1.9-1-4.9-3-3
					c-2.7,2.6-4.4,5.9-7.9,7.6c-4,1.9-9,2.3-13.3,3.5c-8.3,2.5-16.6-2.3-25-2.7c-2.7-0.1-5.2,0.2-7.9-0.5c-2.1-0.5-3.8-1.5-5.8-2.3
					c-1.9-0.7-3.7-1-5.7-0.3c-5.9,2-7.2,8.3-5.9,13.7C394.3,188.3,398.4,187.2,397.8,184.5L397.8,184.5z"/>
			</g>
		</g>
		<g>
			<g>
				<path d="M465.6,169.5c3.3,1.4,6.5,2.7,10,3.4c5,1,9.9,0.5,15,0.4c10.1-0.1,20-0.5,30-1.2c4.1-0.3,7.8-1.4,11.5-3.1
					c1.8-0.8,3.6-1.8,5.7-1.7c2.8,0.1,3.2,1.3,3.7,3.9c1,5.6,0.8,11.3,0.8,17c0,2.6-0.1,5.2,0,7.8c0,0.8,0.7,3.6-0.1,4.1
					c-2.3,1.5-0.1,5.2,2.1,3.7c2.6-1.7,2.4-4.4,2.3-7.2c-0.3-6.3,0.4-12.6,0-18.9c-0.3-3.6-0.2-9.4-2.5-12.3c-1.9-2.4-5.5-2.4-8.2-2
					c-5.3,0.8-9.5,4.1-15,4.6c-5.5,0.5-11,0.2-16.4,0.7c-11.9,1.1-25.3,2.1-36.4-2.8C465.2,164.7,463.1,168.4,465.6,169.5
					L465.6,169.5z"/>
			</g>
		</g>
		<g>
			<g>
				<path d="M393.9,186.2c1.7,3.5,1.2,8.3,1.7,12.1c0.5,3.5,2.1,6.6,3.5,9.9c2,4.7,5.8,8.2,10.4,10.5c6.2,3.1,13.8,4.3,20.7,2.3
					c3.1-0.9,6.1-2,9-3.5c3.4-1.7,6.5-4,9.9-5.6c3.2-1.5,6.3-2.2,9.3-4c1.3-0.8,2.6-1.7,4-2.5c4.3-2.4,5.2-1.3,9.2-0.3
					c8.2,2,16.3,3.3,24.6,4.1c7.8,0.8,15.3,1.4,23.2,1.4c4.5,0,8.4-0.6,12.7-2c3.6-1.2,7.7-2.5,11-4.3c2.4-1.3,0.3-5-2.1-3.7
					c-7.6,4.2-16.4,5.7-24.9,5.7c-7.3,0-14.2-1.2-21.4-1.6c-7.8-0.4-16.1-2.2-23.7-4.3c-2.9-0.8-5.6-1.6-8.5-0.3
					c-2.8,1.3-5.2,3.6-8,5.1c-2.9,1.6-6.3,2.1-9.2,3.8c-3,1.8-5.8,3.7-9,5.1c-7.2,3.3-14.1,4.4-21.7,1.8c-2.9-1-5-2.7-7.6-4.4
					c-2.8-1.8-4-5-5.3-7.9c-2.7-6.3-1.1-13.6-4.1-19.6C396.3,181.6,392.7,183.7,393.9,186.2L393.9,186.2z"/>
			</g>
		</g>
		<g>
			<g>
				<path d="M365.6,184c0.3-5.2,1.4-12,5.1-15.9c1.8-2,4.9-3.5,7.7-3.2c3.5,0.3,4.4,3.3,5.2,6.2c1.7,6.4,3.1,19.3,11.1,21.3
					c2.7,0.7,3.8-3.4,1.1-4.1c-3.1-0.8-4-5-5-7.5c-1.5-3.9-2.3-8-3.4-12c-1.3-4.5-3.3-7.7-8.4-8.1c-12.7-1.2-17.1,13.4-17.7,23.4
					C361.2,186.8,365.4,186.7,365.6,184L365.6,184z"/>
			</g>
		</g>
		<g>
			<g>
				<path d="M361.4,182.3c-0.3,4.3-0.6,8.5-0.7,12.9c0,3.5-0.6,7.4,0,10.9c1,6,6.9,11.7,12.1,14.4c2.9,1.5,6.3,2,9.6,2.1
					c3.1,0.1,7.1,0.7,9.9-0.8c4.4-2.4,7.6-5.9,10.9-9.6c1.8-2-1.2-5-3-3c-2.4,2.7-4.4,4.7-7.4,6.8c-0.8,0.5-1.7,1.7-2.6,2.1
					c-1.4,0.5-3.5,0.3-5,0.2c-4.1-0.1-7.9-0.3-11.5-2.4c-6.1-3.5-8.9-8.9-8.7-15.7c0.2-6,0.3-12,0.7-18
					C365.9,179.6,361.6,179.6,361.4,182.3L361.4,182.3z"/>
			</g>
		</g>
		<g>
			<g>
				<path d="M545.3,172.5c2.5-2.9,11-2.7,14.4-2.8c5.6-0.2,13.4-1.6,16.3,4.3c2.9,5.9,5,11.7,5,18.3c0,6.8,0.5,13.4-1.5,20
					c-1.5,4.9-4,17.4-11.4,15.6c-3-0.7-5.4-5.1-7.1-7.4c-2.2-3.1-2.3-5.9-2.1-9.5c0.2-5.1,0.4-9.4-2.9-13.5c-2.9-3.6-7-4.3-11.4-4.4
					c-2.7-0.1-2.7,4.2,0,4.3c6.9,0.2,10.4,3.7,10.2,10.6c-0.1,3-0.7,6.4-0.1,9.4c0.7,3.3,3,5.8,5,8.4c1.6,2.1,3.1,4.4,5.5,5.6
					c4.6,2.3,10.1,0.3,12.7-3.8c3.8-5.9,6.7-14.2,7.4-21.1c0.4-4.3,0-8.9,0-13.3c0-3.6-0.1-7.2-1.2-10.7c-1.2-3.8-3-7.9-4.7-11.4
					c-1.1-2.2-2-2.9-4.1-4.1c-5.3-2.9-12.9-1.9-18.8-1.4c-4.1,0.3-11.2,0.4-14.1,3.8C540.5,171.5,543.5,174.5,545.3,172.5
					L545.3,172.5z"/>
			</g>
		</g>
		<g>
			<g>
				<path d="M488.6,35.6c0-0.2,0.1-0.4,0.1-0.6c0-0.1,0.2-0.4,0.1-0.4c0,0-0.3,0.5-0.1,0.3c0-0.1,0.1-0.1,0.1-0.2
					c0.2-0.3-0.1,0.1-0.1,0.2c0-0.1,0.2-0.2,0.2-0.3c0.7-0.8,0.9-2.2,0-3c-0.8-0.7-2.2-0.9-3,0c-0.3,0.4-0.7,0.8-0.9,1.3
					c-0.2,0.5-0.4,1-0.5,1.6c-0.1,0.6-0.1,1.1,0.2,1.6c0.3,0.4,0.8,0.9,1.3,1C487,37.3,488.4,36.8,488.6,35.6L488.6,35.6z"/>
			</g>
		</g>
		<g>
			<g>
				<path d="M483.6,42.2c0,0.7,0,1.4,0,2.1c0,1.1,1,2.2,2.1,2.1c1.2-0.1,2.1-0.9,2.1-2.1c0-0.7,0-1.4,0-2.1c0-1.1-1-2.2-2.1-2.1
					C484.5,40.1,483.6,41,483.6,42.2L483.6,42.2z"/>
			</g>
		</g>
	</g>
	<g class="st3">
		<g id="XMLID_00000111150919333008870870000009507274485082797748_" class="st5">
			<g>
			</g>
			<g>
				<path class="st10" d="M473.5,41.6c0-0.9-0.1-1.6,0.3-2.4c0.5-1.2,1.6-2,2.4-3c1.6-2,3-3.9,4.8-5.7c0.8-0.8,1.5-1.8,2.4-2.6
					c1-0.9,1.6-1,2.9-1.2c2.4-0.5,4.4-0.9,6.9-0.9c2.1,0,4,0.1,6,0.5c1,0.2,2.1,0.3,2.9,1c0.8,0.7,1.7,2.1,2.3,3
					c1.2,1.5,1.6,3.7,1.4,5.6c-0.3,2.5-3.3,1.2-4.6,2.5c1.2,0.2,3.1,0.3,4.1,1.3c0.9,0.8,1.3,2.5,1.7,3.6c1.1,2.9,2.5,5.7,2.5,8.8
					c0,3.5-2.8,5-6.1,5c-1.6,0-2.8-1-4-2.1c-1.3-1.3-1.1-2.6-2-4c-0.4,0.6-0.1,1.7-0.1,2.4c0,0.9-0.2,1.9-0.5,2.7
					c-0.7,1.8-2.9,3.5-4.4,4.7c-1.5,1.2-2.9,1.5-4.6,2.3c-1.6,0.7-3.8,0.5-5.2-0.6c-0.9-0.7-1.1-1.8-1.7-2.7
					c-0.5-0.9-1.2-1.6-1.5-2.6c-0.2-0.7-0.2-1.4-0.5-2.2c-0.3-0.7-0.9-1.4-1.4-2.1c-1-1.7-1.5-3.6-2.4-5.3c-0.4-0.8-1.3-1.3-1.7-2.1
					c-0.3-0.7-0.1-1.9-0.1-2.7"/>
				<path class="st10" d="M461.4,74.8c0,0.9,0,1.8,0,2.7"/>
				<path class="st10" d="M473,44.8c-1.6,0-3.3-0.1-4.8,0.6c-1.2,0.6-2.8,2.5-3.6,3.6c-1.9,2.6-3.8,6.5-4.3,9.8
					c-0.4,2.9-0.3,6.7,0.2,9.5c0.3,1.5,0.8,3,0.8,4.6"/>
				<path class="st10" d="M461.4,72.9c0,0.6,0,1.3,0,1.9c0,3-0.1,6,0,9.1c0.1,1.6,0.6,2.9,1,4.4c0.4,1.7-0.2,3.6,0.2,5.3
					c0.4,1.8,0.4,3.5,0.4,5.4c0,1.7,0.5,3.1,0.5,4.7c0,1.9-0.1,3.9,0,5.7c0.1,0.8,0.4,1.4,0.6,2.2c0.2,0.9,0,2.1,0,3.1
					c0,3.7-0.3,7.5,0,11.2c0.1,1.4,0.5,2.6,0.6,4c0,0.8-0.1,1.6,0,2.3c0.1,1.6,0.6,2.9,0.6,4.6c0,1.3-0.1,2.6,0,3.9
					c0.1,1.9,0.6,3.8,0.6,5.7c0,1-0.1,2.1,0,3.1c0.1,1.5,0.6,2.8,0.5,4.3c0,1.5-0.2,13.4,0.5,12.8"/>
				<path class="st10" d="M394.2,65.9c0.1-0.1,0.2-0.1,0.2-0.2c0,0,0.1-0.1,0.1-0.1c2.2-1.7,4.3-2.7,6.9-3.6
					c1.5-0.5,2.7-0.9,4.4-0.9c1.3,0,2.5,0,3.8,0c3.2,0,6.5,0,9.7,0c1.4,0,2.6,0.5,4,0.5c1.8,0,3.2,0.1,4.9,0.6
					c1.6,0.5,3,1.2,4.6,1.8c1.6,0.6,2.8,1.7,4.1,2.8c1.6,1.3,2.5,2.8,3.8,4.3c0.5,0.6,1.2,1,1.6,1.7c0.6,1,0.7,1.7,1.5,2.5
					c1.1,1.2,2.1,2.5,3.2,3.7c1.4,1.5,3.3,2.6,4.9,3.7c0.9,0.6,1.6,1.3,2.5,1.9c0.8,0.6,1.7,0.7,2.5,1.3c1.3,0.9,2,2,3.7,2.2
					c0,0.1,0.1,0.3,0.1,0.4"/>
				<path class="st10" d="M384.6,60.1c2,1.1,3.9,2.2,5.8,3.4c1.2,0.7,2.6,1.4,3.9,2.2c0,0,0,0,0.1,0c0.6,0.3,1.1,0.7,1.6,1.1
					c0.3,0.2,0.6,0.4,0.8,0.7"/>
				<path class="st10" d="M382.5,71.7c2.9-3,7.5-5.2,11.8-6c0.1,0,0.1,0,0.2,0c0.8-0.1,1.5-0.2,2.3-0.3c0.2,0,0.4,0,0.6,0"/>
				<path class="st10" d="M396.8,65.9c-0.3,0.3-0.6,0.6-0.8,0.9c-1.7,1.9-2.8,4.1-3.9,6.5c-0.8,1.8-1.9,3.5-2.6,5.4
					c-0.3,1-1.4,2.6-1.2,3.7"/>
				<path class="st10" d="M466.1,112c0.2-0.8,1.4-1.7,2.1-2.2c1.6-1.2,2.9-2.5,4.6-3.6c1.3-0.8,3-2.4,4.5-2.7
					c0.8-0.1,1.6,0.1,2.4-0.1c0.8-0.2,1.2-0.4,2-0.4c3.4,0,6.8-1.4,10-2.1c1.2-0.3,2.5-0.3,3.7-0.6c1.3-0.2,2.3-1,3.7-1
					c1.2,0,2.5,0.2,3.7,0c1.5-0.3,2.8-0.5,4.4-0.5c1.4,0,2.7,0.1,4.1-0.3c1.8-0.4,3.6-0.2,5.4-0.2c1.4-0.1,2.5-0.9,3.9-1.1
					c1-0.1,1.9-0.1,2.8-0.2c1-0.2,1.8-0.3,2.9-0.3c2.2,0.1,4-1.1,6.3-1.1c1.2,0,2.3,0,3.5,0c1.6,0,3.6-0.3,5.1,0.1
					c1.3,0.4,2.3,0.4,3.8,0.4c2,0,4,0,6,0c0.9,0,4-0.5,3.4,1.1"/>
				<path class="st10" d="M553.4,95.6c1.8-1.4,3.6-2.4,5.6-3.4c1.3-0.7,2.7-1.2,3.9-1.9c1.1-0.6,2.4-1,3.5-1.6c-0.1,0-0.2,0-0.3,0"
					/>
				<path class="st10" d="M554.5,96.1c2.4,0,4.6,0,6.9,1c1.2,0.5,2.3,1.2,3.6,1.7c0.7,0.3,1.3,0.6,2,0.9c0.6,0.2,0.9,0,1.4,0.6"/>
				<path class="st10" d="M555.6,97.7c0,1.7,0.8,3.3,1.1,5c0.1,0.9,0.5,1.6,0.8,2.4c0.3,0.9,0.1,1.7,0.3,2.6c0.1,0,0.3,0.1,0.4,0.1"
					/>
				<path class="st10" d="M389.9,127.8c1.2,0,2.5-0.2,3.7,0.1c1.7,0.4,3,1.3,4.8,1.5c1.9,0.2,3.7,0.8,5.5,1.3c1.8,0.5,3.2,0.7,5,0.7
					c2.2,0.1,3.9,1.6,6,1.6c1.6,0,2.9,0.3,4.4,0.5c2.7,0.4,5.5,1,8,2.1c2.9,1.3,5.8,2.1,8.7,3.3c3.2,1.3,6.3,2.8,9.5,4.2
					c3.6,1.5,7,3.4,10.4,5.2c1.3,0.7,3,1.1,4.5,1.5c1,0.3,1.1,0.5,2,1c0.7,0.4,2,0.3,2.5,1.1c-0.1,0-0.2,0.1-0.4,0.1"/>
				<path class="st10" d="M377.2,121c1.7,1.7,3.6,2.6,5.7,3.7c1.1,0.6,2.1,1.2,3.3,1.6c0.7,0.2,1.4,0.3,2,0.6
					c0.1,0.1,0.2,0.1,0.3,0.2c0.4,0.3,0.8,0.7,1.4,0.8"/>
				<path class="st10" d="M388.9,127.8c-0.3,2.1-2.1,3.7-3.1,5.4c-0.7,1.3-1,2.8-1.5,4.1c-0.5,1.2-1.2,2.4-1.8,3.6
					c0-0.1,0-0.2,0-0.4"/>
				<path class="st10" d="M375.6,128.9c2.2,0,4.4,0,6.6,0c1.3,0,1.8-0.5,3-0.9c0.8-0.3,2.5-0.3,3.4-0.9c0.1-0.1,0.3-0.2,0.3-0.3"/>
				<path class="st10" d="M469.8,164.3c-0.1,0-0.3-0.1-0.4-0.1c2.5-2.7,5.9-3.1,9.1-4.1c1.6-0.5,3.4-0.6,5-1.2
					c1.4-0.5,2.5-1.1,3.9-1.4c3.9-0.7,7.9-1.5,11.8-2.3c1.5-0.3,3.1-0.5,4.6-1c1.8-0.6,3.6-1.5,5.5-1.5c1.3,0,3,0.3,4.3,0
					c1.6-0.3,3.1-0.9,4.8-1.1c1.8-0.2,3.6-0.5,5.2-0.9c1.3-0.4,2.9-0.1,4.3-0.1c2.1,0,3.9-0.1,6-0.5c1.6-0.3,3.2-0.6,4.8-0.6
					c3.9,0,7.7,0.5,11.6,0.5c3.4,0,6.8,0,10.1,0c4.1,0,8.6,0.5,12.4,2.1"/>
				<path class="st10" d="M573.5,152.2c1.7,1.4,3.7,2.8,5.7,3.6c2.1,0.8,4.1,2.1,6.4,2.2c0-0.2,0.1-0.3,0.1-0.5"/>
				<path class="st10" d="M573.5,152.7c0,1.3,0,2.6,0,4c0,1.2-0.5,3.7,0.5,4.5"/>
				<path class="st10" d="M573.5,152.7c-0.4-1.2,1.6-1.8,2.3-2.4c1.1-0.8,2.3-1.5,3.5-2.3c2.1-1.3,4.4-2.3,6.9-2.2"/>
				<path class="st10" d="M395.7,185c0-3.2-0.6-6.9,0-10.1c0.6-3.6,6.3-2.1,8.5-0.9c1.6,0.8,2.3,2.7,4.2,3.1c1.4,0.3,3.3,0,4.8,0
					c1.9,0,3.8,0,5.7,0c1.6,0,2.9,0.3,4.5,0.5c4.1,0.6,8,1.8,12,2.8c1.7,0.4,3.4,0.4,5.1,0.4c2.1,0,3.4-1.1,5.3-1.5
					c2-0.4,4-0.9,6-1.6c1.7-0.6,3.6-0.8,5.3-1.3c1.7-0.5,2.9-1.8,4.4-2.7c1.9-1.1,3.5-4.5,5.2-5.8"/>
				<path class="st10" d="M468.1,165.2c0.6,0.6,1.4,0.7,2.1,1.2c0.8,0.5,1.5,1.2,2.3,1.8c1.5,1.1,3.5,2.5,5.4,2.8
					c3.7,0.6,8,0,11.8,0c2.2,0,4.4,0,6.7,0c2.2,0,4.7,0.3,6.8-0.3c3.5-0.9,7.4,0.5,10.9-0.4c3.1-0.8,6.5-0.1,9.7-1
					c1.5-0.4,2.9-0.5,4.4-1.1c1.8-0.7,3.6-1.8,5.4-2.5c2.2-0.9,8.4-1.5,9,1.6c0.2,1.3,0.7,2.6,0.9,3.9c0.1,0.3,0.1,0.6,0.2,0.9
					c0.1,0.8-0.1,1.6,0,2.4c0.2,1.1,0.5,1.8,0.5,2.9c0.1,3.9,0,7.7,0,11.6c0,2-0.1,4,0,6c0,0.3,0,0.5,0,0.8c0,1,1.5,4.7-0.5,4.9"/>
				<path class="st10" d="M396.3,185c0.1,0.6,0.5,1,0.6,1.6c0.1,0.5-0.1,1.1,0,1.6c0.1,1.2,0.7,1.9,1,3c0.6,2.6-0.4,5.4,0.2,7.9
					c0.6,2.3,1.6,4.8,2.5,7c0.2,0.6,0.7,1,1,1.5c0.3,0.7,0.2,1.4,0.6,2.2c0.7,1.2,2.2,2.5,3.3,3.2c0.8,0.5,1.4,0.5,2.1,1.1
					c0.5,0.4,1,1,1.5,1.5c1.4,1.3,3,1.4,4.8,2.1c1.3,0.5,2.4,1.4,3.8,1.6c1.6,0.2,3.5,0,5.1,0c1.2,0,2.5,0,3.7,0
					c0.7,0,1.5,0.1,2.1,0c1-0.2,1.4-0.7,2.2-1.1c1.2-0.6,2.5-0.8,3.7-1.2c0.8-0.2,1.4-0.5,2.1-0.9c1-0.6,2-0.9,3-1.4
					c1.4-0.6,2.5-1.7,3.9-2.3c1.3-0.6,2.2-1.5,3.4-2.1c2.5-1.4,5.6-1.9,8.1-3.1c1.6-0.8,3-2,4.6-2.8c1.3-0.6,2.2-1.7,3.4-2.4
					c2.3-1.3,5.2-0.6,7.4,0.3c2.3,0.9,4.4,0.9,6.7,1.3c1.4,0.2,2.8,0.6,4.1,0.9c1.7,0.4,3.4,1.2,5,1.5c2.7,0.5,5.5,0.7,8.3,0.6
					c1.3,0,2.3,0.2,3.6,0.4c0.8,0.1,1.5,0,2.2,0.1c0.9,0.1,1.7,0.5,2.7,0.6c1.8,0.1,3.5,0.5,5.3,0.5c1.4,0,2.8,0,4.2,0
					c3.4,0,6.7,0,10.1,0c1.9,0,3.3-0.4,5.1-0.9c1.8-0.6,3.7-0.9,5.4-1.6c2.5-1,5.2-2.5,7.8-2.9c0-0.1,0.1-0.3,0.1-0.4"/>
				<path class="st10" d="M363.5,183.9c0-0.2,0-0.4,0-0.6c0.1-1.2,1-2.5,1.1-3.8c0.1-1.1-0.2-2.3,0-3.4c0.2-1.4,1-2.9,1.6-4.2
					c0.6-1.1,0.9-2.4,1.6-3.4c2.7-4.5,9.4-7.5,14.3-4.9c1.4,0.7,2.1,1.8,2.5,3.3c0.3,1.2,0.9,2.4,1.1,3.6c0.5,2.5,1.1,5,1.9,7.4
					c0.4,1.2,1,2.3,1.2,3.5c0.1,0.5,0,1.1,0.2,1.6c0.2,0.5,0.7,0.9,1,1.4c1.2,2.6,1.8,5.6,5.3,6"/>
				<path class="st10" d="M363.5,182.3c0,0.3,0,0.6,0,1c0,0.8,0.1,1.7,0,2.5c-0.1,1.3-0.6,2.3-0.5,3.7c0,3.1,0,6.2,0,9.4
					c0,2.6-0.5,6,0.4,8.5c1.2,3.3,4.2,6.2,6.8,8.6c1.2,1.1,2.6,1.8,4,2.7c1.5,1,3.2,1.1,4.9,1.4c2.4,0.5,4.8,0.4,7.3,0.4
					c1.2,0,3,0.3,4.1-0.1c0.8-0.3,1.1-1,1.7-1.5c0.7-0.6,1.4-0.7,2.2-1.2c1.2-0.7,2.6-1.5,3.7-2.4c0.5-0.5,3.3-3,3.1-3.8
					c-0.2,0-0.3-0.1-0.5-0.1"/>
				<path class="st10" d="M545,171.2c0-0.1-0.1-0.2-0.1-0.3c-0.4-2.1,4.4-2.3,5.4-2.5c1-0.2,1.7-0.4,2.8-0.4c1.8,0,3.3-0.5,5-0.5
					c2.1-0.1,4.2,0,6.3,0c2.3,0,4.9-0.4,7.2,0.1c1.2,0.3,2,0.9,3,1.5c1.6,0.9,1.9,0.7,2.7,2.5c1,2.3,2,4.7,3,7
					c0.9,1.9,1.6,3.8,2.1,5.9c0.7,2.9,0.7,5.6,0.7,8.6c0,2.5,0,4.9,0,7.4c0,2.2,0.3,4.6-0.1,6.7c-0.8,4.4-2.5,8.5-3.8,12.7
					c-0.7,2.2-2,4.5-3.2,6.5c-0.8,1.4-1.3,2.1-2.8,2.7c-0.9,0.3-1.9,0.7-2.8,0.9c-2.7,0.5-4.8-0.5-6.6-2.4c-1-1-1.7-2-2.4-3.1
					c-1-1.4-2.3-2.7-3.2-4.2c-0.7-1.1-1.4-2.5-1.6-3.7c-0.2-1.3,0-2.9,0-4.2c0-2.9,0.5-6.2,0-9.1c-0.4-2.2-2.6-5.5-4.5-6.6
					c-2.1-1.3-5.2-1.6-7.6-1.6"/>
				<path class="st10" d="M486.8,35.2c-0.1-0.9,0.5-2,1.1-2.6"/>
				<path class="st10" d="M485.7,42.1c0,0.7,0,1.4,0,2.1"/>
			</g>
		</g>
	</g>
</g>
<g>
	<polygon class="st7" points="654.3,187.8 650.2,177.6 647.6,168 644.7,163.7 638.8,162.9 633.3,165.3 627.2,176.2 626.2,185 
		625.5,194.6 625.5,203.8 628.9,212.1 634.1,217 642.8,220.3 650.8,220.6 657.1,217.6 661,215 664.5,211.9 664.2,207.8 660.5,198.1 
		660.7,193.2 659,190.3 	"/>
	<polygon class="st7" points="806.9,193.9 806.9,183.8 806.5,174.6 807.7,171.3 813,168.5 820.8,167.6 831,167.4 837.3,169.2 
		841.3,174.8 844.4,182.2 845.9,190.9 845.9,202.3 844.3,212.4 842.4,220.3 838.4,226.9 834.8,230.2 829.6,230.2 825.7,226.8 
		820.4,219.6 819.6,208.9 818.8,200.8 813.4,195.8 	"/>
	<polygon class="st8" points="661.8,172.7 658.5,175 657.9,179.9 659,185 659.5,188.2 660.7,193.2 660.5,198.1 662.6,203.7 
		664.7,209.7 668.1,213.1 673.9,217 680.3,219.5 687.2,219.4 693.5,218.4 702.4,214.9 708.2,211.4 714.4,208.6 720.9,205.4 
		727.3,201.5 733.2,202.4 741,203.9 751,206.4 761,207.1 771.2,208.3 781.8,208.3 788.8,207.9 796.1,205.8 801.2,203.7 806.5,200.8 
		806.9,193.9 806.5,186.1 806.5,174.6 805.4,167.4 803.1,164.4 795.7,166.2 789.2,168.5 779.1,170.2 767.5,170.9 759.5,171.1 
		749.8,171.3 743,171.1 738.1,170.1 734.1,169.1 730.6,168 728.9,168.5 725.3,173.2 718.8,176.5 711.6,178.5 705.7,179.9 701,180.8 
		692.5,178.9 683.9,177.1 676.5,177.1 671,176.5 666.8,173.6 	"/>
	<polygon class="st9" points="737.4,37.9 741,33.6 743.7,29.2 749.5,26.6 755.1,25.8 761.1,26.1 766,28.6 768.3,32.6 768.6,35.8 
		765.7,37.9 768.6,42.2 771.4,47.5 771.4,53.2 769.7,55.5 766.1,57 761.9,54.6 759.7,55.4 757.9,58.3 752.1,62.3 746,62.3 742.2,57 
		738.5,48.4 736.2,44.1 	"/>
	<g>
		<g>
			<g>
				<path d="M738.3,42.4c0.1-3,3-5.9,4.9-8.1c2.8-3.4,5-5.4,9.5-6.1c4-0.5,9.5-0.9,12.3,2.7c3.1,4,0.3,4.2-2.1,5.7
					c-1.4,0.9-1.4,3.6,0.5,3.9c3.9,0.6,5,4.3,6,7.7c0.7,2.2,1.8,5.3-1.4,6.6c-3.5,1.3-4.8-2.5-5.9-4.9c-0.7-1.6-3.6-1.2-3.9,0.5
					c-0.5,3.2-0.7,5.8-3.5,8.1c-3.9,3.2-8.3,3.1-10.3-2.1c-1-2.6-2.3-4.8-3.5-7.4c-0.9-2-2.6-4-2.5-6.2c0.2-2.7-4.1-2.7-4.3,0
					c-0.3,4.6,3.2,8.1,5.1,12.2c1.6,3.4,2.5,8.5,6.5,10.1c3.6,1.4,7.8-0.4,10.7-2.6c4.5-3.3,4.9-5.9,5.8-10.9
					c-1.3,0.2-2.6,0.3-3.9,0.5c1.6,3.5,3.4,6.9,7.8,7.2c3,0.2,6.3-1.2,7.6-4c1.9-4-0.5-8.7-2-12.5c-1.6-4.1-2.8-5.6-7.3-6.3
					c0.2,1.3,0.3,2.6,0.5,3.9c1.7-1,3.8-0.4,5-2.3c1.3-1.9,0.7-5.1-0.1-6.9c-2.2-5.4-6.3-6.9-11.8-7.3c-3.3-0.2-6.6,0.2-9.8,0.9
					c-3,0.7-4.2,2.1-6.2,4.4c-3.6,3.9-8,7.8-8.1,13.4C734,45.1,738.2,45.1,738.3,42.4L738.3,42.4z"/>
			</g>
		</g>
		<g>
			<g>
				<path d="M736.2,42.4c-7.3,0.2-11,4.7-13.7,11.2c-3.3,7.9-0.5,15.9-0.5,24c0,2.7,4.3,2.7,4.3,0c0-5.5-1.6-11-1.2-16.5
					c0.4-6.4,4.1-14.2,11.2-14.5C738.9,46.6,738.9,42.3,736.2,42.4L736.2,42.4z"/>
			</g>
		</g>
		<g>
			<g>
				<path d="M722,73c0,9.5,0.8,18.8,1.8,28.2c1,9.5,0.8,19.2,1.4,28.8c0.5,8.1,1.3,16.4,1.6,24.5c0.1,4-1.1,9.5,0.7,13.3
					c0.3,0.7,1.1,1,1.8,1.1c0,0,0.1,0,0.1,0c2.7,0.1,2.7-4.1,0-4.3c0,0-0.1,0-0.1,0c0.6,0.4,1.2,0.7,1.8,1.1
					c-0.7-1.5-0.2-4.9-0.2-6.6c0-2.2,0.1-4.4-0.1-6.6c-0.7-8.1-1-16.2-1.7-24.4c-0.7-8.8-0.1-17.7-1.1-26.5c-1-9.5-2-19-1.9-28.6
					C726.2,70.2,722,70.2,722,73L722,73z"/>
			</g>
		</g>
		<g>
			<g>
				<path d="M657.6,67.3c2-0.9,4-1.9,6-2.7c3.5-1.4,6.9-1.3,10.6-1.3c8.3,0,18-0.5,24.4,5.7c4.4,4.1,6.9,9.9,11.8,13.5
					c4,3,8.4,6.3,13.1,8c2.6,1,3.7-3.2,1.1-4.1c-6.3-2.3-13.4-7.8-17.1-13.3c-3.6-5.3-7.8-9.6-13.8-12c-7.2-2.9-15.7-2.3-23.4-2.2
					c-5.5,0.1-10,2.2-15,4.5C653,64.8,655.1,68.4,657.6,67.3L657.6,67.3z"/>
			</g>
		</g>
		<g>
			<g>
				<path d="M646.3,62c1.7,0.9,3.7,1.1,5.4,2c1.1,0.6,2.4,0.9,3.4,1.7c2.1,1.8,5.1-1.2,3-3c-1.2-1-2.3-1.4-3.7-2.1
					c-0.9-0.4-1.7-0.9-2.7-1.2c-1.1-0.4-2.2-0.5-3.2-1.1C646,57.1,643.9,60.7,646.3,62L646.3,62z"/>
			</g>
		</g>
		<g>
			<g>
				<path d="M647.3,71.6c3-3,6.1-4.3,10.3-4.4c2.7-0.1,2.7-4.3,0-4.3c-5.3,0.1-9.5,1.9-13.3,5.6C642.4,70.5,645.4,73.5,647.3,71.6
					L647.3,71.6z"/>
			</g>
		</g>
		<g>
			<g>
				<path d="M654.5,64.9c-0.2,1.1-0.3,2.1-0.4,3.2c-0.2,1-0.6,1.8-1,2.7c-0.7,1.9-0.8,3.9-1.4,5.8c-0.9,2.6,3.2,3.7,4.1,1.1
					c0.6-1.9,0.7-3.9,1.4-5.7c0.4-1,0.9-1.9,1.1-2.9c0.2-1,0.2-2,0.4-3C659.2,63.4,655.1,62.2,654.5,64.9L654.5,64.9z"/>
			</g>
		</g>
		<g>
			<g>
				<path d="M728.8,113.8c12.5-11.5,30.1-10.7,45.9-13.2c5.9-1,11.8-1.9,17.8-2.6c3.6-0.4,7.4-0.5,11-0.2c4.3,0.4,9.2-0.2,13.2,1.5
					c2.5,1,3.6-3.1,1.1-4.1c-4.4-1.8-9.2-1-13.8-1.6c-3.6-0.4-7.5-0.3-11.1,0.1c-6.5,0.7-12.9,1.7-19.3,2.8
					c-7,1.1-14.3,1.1-21.2,2.8c-4.9,1.2-10,1.8-14.7,3.6c-4.1,1.5-8.6,5.1-11.8,8C723.7,112.7,726.8,115.7,728.8,113.8L728.8,113.8z
					"/>
			</g>
		</g>
		<g>
			<g>
				<path d="M817.2,97.5c4-2.9,8.6-4.7,13-6.9c1.8-0.9,1-4.1-1.1-4c-0.1,0-0.2,0-0.3,0c-2.7,0.2-2.7,4.5,0,4.3c0.1,0,0.2,0,0.3,0
					c-0.4-1.3-0.7-2.6-1.1-4c-4.4,2.2-9,4-13,6.9C812.9,95.4,815,99.1,817.2,97.5L817.2,97.5z"/>
			</g>
		</g>
		<g>
			<g>
				<path d="M817.2,98.3c2.6,0,4.8,0.2,7.2,1.4c1.3,0.6,4.3,1.6,5.1,2.2c2.1,1.8,5.1-1.2,3-3c-0.9-0.8-1.7-0.9-2.8-1.3
					c-1.6-0.6-3-1.5-4.5-2.2c-2.6-1.1-5.2-1.3-8-1.3C814.5,94,814.5,98.3,817.2,98.3L817.2,98.3z"/>
			</g>
		</g>
		<g>
			<g>
				<path d="M815.7,96.3c0.1,2.1,1,4.1,1.5,6.1c0.5,2.1,1,4,1.3,6.1c0.4,2.7,4.5,1.6,4.1-1.1c-0.3-2-0.7-3.7-1.2-5.6
					c-0.5-1.8-1.4-3.7-1.5-5.5C819.8,93.6,815.5,93.6,815.7,96.3L815.7,96.3z"/>
			</g>
		</g>
		<g>
			<g>
				<path d="M652.7,130c6.2-0.2,12.7,2.8,18.8,4.2c6,1.4,12.2,1.4,18.1,3.6c13.1,4.9,25.3,11.9,38.4,16.6c2.6,0.9,3.7-3.2,1.1-4.1
					c-13.6-4.9-26.2-12.5-40-17.2c-5.7-1.9-11.8-1.9-17.6-3.3c-6.1-1.5-12.5-4.3-18.8-4.1C649.9,125.8,649.9,130.1,652.7,130
					L652.7,130z"/>
			</g>
		</g>
		<g>
			<g>
				<path d="M638.5,122.5c2,1.9,4.5,3.2,6.9,4.5c1.1,0.6,2.2,1.1,3.3,1.5c1.2,0.4,2.2,1.1,3.4,1.5c2.6,0.8,3.8-3.3,1.1-4.1
					c-0.8-0.2-1.5-0.9-2.4-1.2c-1.2-0.4-2.2-0.8-3.3-1.3c-2.1-1.1-4.3-2.2-6.1-3.8C639.5,117.6,636.5,120.6,638.5,122.5L638.5,122.5
					z"/>
			</g>
		</g>
		<g>
			<g>
				<path d="M649.5,127.3c-0.5,2.3-2.4,3.8-3.3,5.9c-0.9,2.3-1.7,4.4-2.9,6.6c1.3,0.4,2.6,0.7,4,1.1c0-0.1,0-0.2,0-0.4
					c0.3-2.7-3.9-2.7-4.3,0c0,0.1,0,0.2,0,0.4c-0.2,2.1,3,2.8,4,1.1c1.2-2.3,2-4.7,3.1-7.1c1-2.3,2.9-3.9,3.5-6.5
					C654.3,125.8,650.2,124.7,649.5,127.3L649.5,127.3z"/>
			</g>
		</g>
		<g>
			<g>
				<path d="M638.4,131.1c2.5,0,5.2,0.4,7.7-0.1c1-0.2,1.8-0.7,2.7-1c1-0.3,2.2-0.3,3.2-0.5c2.7-0.5,1.6-4.6-1.1-4.1
					c-1.9,0.3-3.5,0.8-5.4,1.3c-2.2,0.6-4.9,0.2-7.1,0.2C635.6,126.8,635.6,131.1,638.4,131.1L638.4,131.1z"/>
			</g>
		</g>
		<g>
			<g>
				<path d="M731.5,166.9c4.7-2,8.8-4.2,13.8-5.4c4.7-1.2,9.2-2.5,14-3.5c7-1.4,14-2.6,20.9-4c7-1.4,15.1-2.3,22.4-2.3
					c5.5,0,11,0.5,16.5,0.5c5.5,0,10.8,0.1,16.1,2c2.6,1,3.7-3.1,1.1-4.1c-9.9-3.7-21.4-2.1-31.8-2.6c-7.7-0.4-16.2,0.8-23.8,2.1
					c-7.5,1.3-15.1,2.8-22.6,4.3c-5.4,1.1-10.5,2.5-15.7,3.8c-4.7,1.2-8.7,3.7-13.1,5.5C726.8,164.3,729,168,731.5,166.9
					L731.5,166.9z"/>
			</g>
		</g>
		<g>
			<g>
				<path d="M834.8,153.7c3.7,3.1,8.8,6,13.6,6.4c0.8,0.1,1.9-0.7,2.1-1.6c0-0.2,0.1-0.3,0.1-0.5c0.5-2.7-3.6-3.8-4.1-1.1
					c0,0.2-0.1,0.3-0.1,0.5c0.7-0.5,1.4-1,2.1-1.6c-3.5-0.3-7.9-2.9-10.6-5.1C835.7,149,832.7,152,834.8,153.7L834.8,153.7z"/>
			</g>
		</g>
		<g>
			<g>
				<path d="M834.1,152.8c0,1.9,0,3.8-0.1,5.7c-0.1,1.5,0.1,3.1,1.3,4.2c1.9,1.9,5-1.1,3-3c0.1,0.1,0-0.5,0-0.8c0-0.5,0.1-1,0.1-1.6
					c0.1-1.5,0-3.1,0-4.6C838.4,150,834.1,150,834.1,152.8L834.1,152.8z"/>
			</g>
		</g>
		<g>
			<g>
				<path d="M838.4,152.8c0,0.4,0.9-0.3,1.3-0.6c0.9-0.6,1.8-1.3,2.8-1.8c2.1-1.2,4.1-2.3,6.5-2.4c2.7-0.1,2.7-4.3,0-4.3
					c-3.6,0.1-6.7,1.7-9.7,3.6c-2,1.3-5.3,2.6-5.1,5.4C834.3,155.5,838.6,155.5,838.4,152.8L838.4,152.8z"/>
			</g>
		</g>
		<g>
			<g>
				<path d="M660.5,184.5c-0.7-2.9-0.8-6.5,2.4-8.2c2-1.1,3.5,0.1,5.4,0.8c2.5,1,5.1,1.9,7.7,2.1c3.8,0.4,7.5,0,11.3,0.8
					c4,0.8,7.9,2.2,12,2.8c6,0.8,11.9-2,17.6-3.4c3.3-0.9,5.7-1.5,8.4-3.7c2.2-1.8,3.5-4.2,5.6-6.2c2-1.9-1-4.9-3-3
					c-2.7,2.6-4.4,5.9-7.9,7.6c-4,1.9-9,2.3-13.3,3.5c-8.3,2.5-16.6-2.3-25-2.7c-2.7-0.1-5.2,0.2-7.9-0.5c-2.1-0.5-3.8-1.5-5.8-2.3
					c-1.9-0.7-3.7-1-5.7-0.3c-5.9,2-7.2,8.3-5.9,13.7C657.1,188.3,661.2,187.1,660.5,184.5L660.5,184.5z"/>
			</g>
		</g>
		<g>
			<g>
				<path d="M728.3,169.4c3.3,1.4,6.5,2.7,10,3.4c5,1,9.9,0.5,15,0.4c10.1-0.1,20-0.5,30-1.2c4.1-0.3,7.8-1.4,11.5-3.1
					c1.8-0.8,3.6-1.8,5.7-1.7c2.8,0.1,3.2,1.3,3.7,3.9c1,5.6,0.8,11.3,0.8,17c0,2.6-0.1,5.2,0,7.8c0,0.8,0.7,3.6-0.1,4.1
					c-2.3,1.5-0.1,5.2,2.1,3.7c2.6-1.7,2.4-4.4,2.3-7.2c-0.3-6.3,0.4-12.6,0-18.9c-0.3-3.6-0.2-9.4-2.5-12.3c-1.9-2.4-5.5-2.4-8.2-2
					c-5.3,0.8-9.5,4.1-15,4.6c-5.5,0.5-11,0.2-16.4,0.7c-11.9,1.1-25.3,2.1-36.4-2.8C728,164.7,725.8,168.3,728.3,169.4L728.3,169.4
					z"/>
			</g>
		</g>
		<g>
			<g>
				<path d="M656.6,186.1c1.7,3.5,1.2,8.3,1.7,12.1c0.5,3.5,2.1,6.6,3.5,9.9c2,4.7,5.8,8.2,10.4,10.5c6.2,3.1,13.8,4.3,20.7,2.3
					c3.1-0.9,6.1-2,9-3.5c3.4-1.7,6.5-4,9.9-5.6c3.2-1.5,6.3-2.2,9.3-4c1.3-0.8,2.6-1.7,4-2.5c4.3-2.4,5.2-1.3,9.2-0.3
					c8.2,2,16.3,3.3,24.6,4.1c7.8,0.8,15.3,1.4,23.2,1.4c4.5,0,8.4-0.6,12.7-2c3.6-1.2,7.7-2.5,11-4.3c2.4-1.3,0.3-5-2.1-3.7
					c-7.6,4.2-16.4,5.7-24.9,5.7c-7.3,0-14.2-1.2-21.4-1.6c-7.8-0.4-16.1-2.2-23.7-4.3c-2.9-0.8-5.6-1.6-8.5-0.3
					c-2.8,1.3-5.2,3.6-8,5.1c-2.9,1.6-6.3,2.1-9.2,3.8c-3,1.8-5.8,3.7-9,5.1c-7.2,3.3-14.1,4.4-21.7,1.8c-2.9-1-5-2.7-7.6-4.4
					c-2.8-1.8-4-5-5.3-7.9c-2.7-6.3-1.1-13.6-4.1-19.6C659.1,181.5,655.4,183.7,656.6,186.1L656.6,186.1z"/>
			</g>
		</g>
		<g>
			<g>
				<path d="M628.3,184c0.3-5.2,1.4-12,5.1-15.9c1.8-2,4.9-3.5,7.7-3.2c3.5,0.3,4.4,3.3,5.2,6.2c1.7,6.4,3.1,19.3,11.1,21.3
					c2.7,0.7,3.8-3.4,1.1-4.1c-3.1-0.8-4-5-5-7.5c-1.5-3.9-2.3-8-3.4-12c-1.3-4.5-3.3-7.7-8.4-8.1c-12.7-1.2-17.1,13.4-17.7,23.4
					C623.9,186.7,628.2,186.7,628.3,184L628.3,184z"/>
			</g>
		</g>
		<g>
			<g>
				<path d="M624.2,182.3c-0.3,4.3-0.6,8.5-0.7,12.9c0,3.5-0.6,7.4,0,10.9c1,6,6.9,11.7,12.1,14.4c2.9,1.5,6.3,2,9.6,2.1
					c3.1,0.1,7.1,0.7,9.9-0.8c4.4-2.4,7.6-5.9,10.9-9.6c1.8-2-1.2-5-3-3c-2.4,2.7-4.4,4.7-7.4,6.8c-0.8,0.5-1.7,1.7-2.6,2.1
					c-1.4,0.5-3.5,0.3-5,0.2c-4.1-0.1-7.9-0.3-11.5-2.4c-6.1-3.5-8.9-8.9-8.7-15.7c0.2-6,0.3-12,0.7-18
					C628.7,179.6,624.4,179.6,624.2,182.3L624.2,182.3z"/>
			</g>
		</g>
		<g>
			<g>
				<path d="M808,172.4c2.5-2.9,11-2.7,14.4-2.8c5.6-0.2,13.4-1.6,16.3,4.3c2.9,5.9,5,11.7,5,18.3c0,6.8,0.5,13.4-1.5,20
					c-1.5,4.9-4,17.4-11.4,15.6c-3-0.7-5.4-5.1-7.1-7.4c-2.2-3.1-2.3-5.9-2.1-9.5c0.2-5.1,0.4-9.4-2.9-13.5c-2.9-3.6-7-4.3-11.4-4.4
					c-2.7-0.1-2.7,4.2,0,4.3c6.9,0.2,10.4,3.7,10.2,10.6c-0.1,3-0.7,6.4-0.1,9.4c0.7,3.3,3,5.8,5,8.4c1.6,2.1,3.1,4.4,5.5,5.6
					c4.6,2.3,10.1,0.3,12.7-3.8c3.8-5.9,6.7-14.2,7.4-21.1c0.4-4.3,0-8.9,0-13.3c0-3.6-0.1-7.2-1.2-10.7c-1.2-3.8-3-7.9-4.7-11.4
					c-1.1-2.2-2-2.9-4.1-4.1c-5.3-2.9-12.9-1.9-18.8-1.4C815,166,808,166,805,169.4C803.2,171.5,806.2,174.5,808,172.4L808,172.4z"
					/>
			</g>
		</g>
		<g>
			<g>
				<path d="M751.4,35.6c0-0.2,0.1-0.4,0.1-0.6c0-0.1,0.2-0.4,0.1-0.4c0,0-0.3,0.5-0.1,0.3c0-0.1,0.1-0.1,0.1-0.2
					c0.2-0.3-0.1,0.1-0.1,0.2c0-0.1,0.2-0.2,0.2-0.3c0.7-0.8,0.9-2.2,0-3c-0.8-0.7-2.2-0.9-3,0c-0.3,0.4-0.7,0.8-0.9,1.3
					c-0.2,0.5-0.4,1-0.5,1.6c-0.1,0.6-0.1,1.1,0.2,1.6c0.3,0.4,0.8,0.9,1.3,1C749.8,37.3,751.2,36.8,751.4,35.6L751.4,35.6z"/>
			</g>
		</g>
		<g>
			<g>
				<path d="M746.3,42.2c0,0.7,0,1.4,0,2.1c0,1.1,1,2.2,2.1,2.1c1.2-0.1,2.1-0.9,2.1-2.1c0-0.7,0-1.4,0-2.1c0-1.1-1-2.2-2.1-2.1
					C747.3,40.1,746.3,41,746.3,42.2L746.3,42.2z"/>
			</g>
		</g>
	</g>
	<g class="st3">
		<g id="XMLID_00000036930918767313596380000003833854206536275884_" class="st5">
			<g>
			</g>
			<g>
				<path class="st10" d="M736.3,41.5c0-0.9-0.1-1.6,0.3-2.4c0.5-1.2,1.6-2,2.4-3c1.6-2,3-3.9,4.8-5.7c0.8-0.8,1.5-1.8,2.4-2.6
					c1-0.9,1.6-1,2.9-1.2c2.4-0.5,4.4-0.9,6.9-0.9c2.1,0,4,0.1,6,0.5c1,0.2,2.1,0.3,2.9,1c0.8,0.7,1.7,2.1,2.3,3
					c1.2,1.5,1.6,3.7,1.4,5.6c-0.3,2.5-3.3,1.2-4.6,2.5c1.2,0.2,3.1,0.3,4.1,1.3c0.9,0.8,1.3,2.5,1.7,3.6c1.1,2.9,2.5,5.7,2.5,8.8
					c0,3.5-2.8,5-6.1,5c-1.6,0-2.8-1-4-2.1c-1.3-1.3-1.1-2.6-2-4c-0.4,0.6-0.1,1.7-0.1,2.4c0,0.9-0.2,1.9-0.5,2.7
					c-0.7,1.8-2.9,3.5-4.4,4.7c-1.5,1.2-2.9,1.5-4.6,2.3c-1.6,0.7-3.8,0.5-5.2-0.6c-0.9-0.7-1.1-1.8-1.7-2.7
					c-0.5-0.9-1.2-1.6-1.5-2.6c-0.2-0.7-0.2-1.4-0.5-2.2c-0.3-0.7-0.9-1.4-1.4-2.1c-1-1.7-1.5-3.6-2.4-5.3c-0.4-0.8-1.3-1.3-1.7-2.1
					c-0.3-0.7-0.1-1.9-0.1-2.7"/>
				<path class="st10" d="M724.1,74.8c0,0.9,0,1.8,0,2.7"/>
				<path class="st10" d="M735.8,44.7c-1.6,0-3.3-0.1-4.8,0.6c-1.2,0.6-2.8,2.5-3.6,3.6c-1.9,2.6-3.8,6.5-4.3,9.8
					c-0.4,2.9-0.3,6.7,0.2,9.5c0.3,1.5,0.8,3,0.8,4.6"/>
				<path class="st10" d="M724.1,72.9c0,0.6,0,1.3,0,1.9c0,3-0.1,6,0,9.1c0.1,1.6,0.6,2.9,1,4.4c0.4,1.7-0.2,3.6,0.2,5.3
					c0.4,1.8,0.4,3.5,0.4,5.4c0,1.7,0.5,3.1,0.5,4.7c0,1.9-0.1,3.9,0,5.7c0.1,0.8,0.4,1.4,0.6,2.2c0.2,0.9,0,2.1,0,3.1
					c0,3.7-0.3,7.5,0,11.2c0.1,1.4,0.5,2.6,0.6,4c0,0.8-0.1,1.6,0,2.3c0.1,1.6,0.6,2.9,0.6,4.6c0,1.3-0.1,2.6,0,3.9
					c0.1,1.9,0.6,3.8,0.6,5.7c0,1-0.1,2.1,0,3.1c0.1,1.5,0.6,2.8,0.5,4.3c0,1.5-0.2,13.4,0.5,12.8"/>
				<path class="st10" d="M656.9,65.9c0.1-0.1,0.2-0.1,0.2-0.2c0,0,0.1-0.1,0.1-0.1c2.2-1.7,4.3-2.7,6.9-3.6
					c1.5-0.5,2.7-0.9,4.4-0.9c1.3,0,2.5,0,3.8,0c3.2,0,6.5,0,9.7,0c1.4,0,2.6,0.5,4,0.5c1.8,0,3.2,0.1,4.9,0.6
					c1.6,0.5,3,1.2,4.6,1.8c1.6,0.6,2.8,1.7,4.1,2.8c1.6,1.3,2.5,2.8,3.8,4.3c0.5,0.6,1.2,1,1.6,1.7c0.6,1,0.7,1.7,1.5,2.5
					c1.1,1.2,2.1,2.5,3.2,3.7c1.4,1.5,3.3,2.6,4.9,3.7c0.9,0.6,1.6,1.3,2.5,1.9c0.8,0.6,1.7,0.7,2.5,1.3c1.3,0.9,2,2,3.7,2.2
					c0,0.1,0.1,0.3,0.1,0.4"/>
				<path class="st10" d="M647.4,60.1c2,1.1,3.9,2.2,5.8,3.4c1.2,0.7,2.6,1.4,3.9,2.2c0,0,0,0,0.1,0c0.6,0.3,1.1,0.7,1.6,1.1
					c0.3,0.2,0.6,0.4,0.8,0.7"/>
				<path class="st10" d="M645.3,71.7c2.9-3,7.5-5.2,11.8-6c0.1,0,0.1,0,0.2,0c0.8-0.1,1.5-0.2,2.3-0.3c0.2,0,0.4,0,0.6,0"/>
				<path class="st10" d="M659.6,65.9c-0.3,0.3-0.6,0.6-0.8,0.9c-1.7,1.9-2.8,4.1-3.9,6.5c-0.8,1.8-1.9,3.5-2.6,5.4
					c-0.3,1-1.4,2.6-1.2,3.7"/>
				<path class="st10" d="M728.9,111.9c0.2-0.8,1.4-1.7,2.1-2.2c1.6-1.2,2.9-2.5,4.6-3.6c1.3-0.8,3-2.4,4.5-2.7
					c0.8-0.1,1.6,0.1,2.4-0.1c0.8-0.2,1.2-0.4,2-0.4c3.4,0,6.8-1.4,10-2.1c1.2-0.3,2.5-0.3,3.7-0.6c1.3-0.2,2.3-1,3.7-1
					c1.2,0,2.5,0.2,3.7,0c1.5-0.3,2.8-0.5,4.4-0.5c1.4,0,2.7,0.1,4.1-0.3c1.8-0.4,3.6-0.2,5.4-0.2c1.4-0.1,2.5-0.9,3.9-1.1
					c1-0.1,1.9-0.1,2.8-0.2c1-0.2,1.8-0.3,2.9-0.3c2.2,0.1,4-1.1,6.3-1.1c1.2,0,2.3,0,3.5,0c1.6,0,3.6-0.3,5.1,0.1
					c1.3,0.4,2.3,0.4,3.8,0.4c2,0,4,0,6,0c0.9,0,4-0.5,3.4,1.1"/>
				<path class="st10" d="M816.2,95.5c1.8-1.4,3.6-2.4,5.6-3.4c1.3-0.7,2.7-1.2,3.9-1.9c1.1-0.6,2.4-1,3.5-1.6c-0.1,0-0.2,0-0.3,0"
					/>
				<path class="st10" d="M817.3,96.1c2.4,0,4.6,0,6.9,1c1.2,0.5,2.3,1.2,3.6,1.7c0.7,0.3,1.3,0.6,2,0.9c0.6,0.2,0.9,0,1.4,0.6"/>
				<path class="st10" d="M818.3,97.6c0,1.7,0.8,3.3,1.1,5c0.1,0.9,0.5,1.6,0.8,2.4c0.3,0.9,0.1,1.7,0.3,2.6c0.1,0,0.3,0.1,0.4,0.1"
					/>
				<path class="st10" d="M652.7,127.8c1.2,0,2.5-0.2,3.7,0.1c1.7,0.4,3,1.3,4.8,1.5c1.9,0.2,3.7,0.8,5.5,1.3c1.8,0.5,3.2,0.7,5,0.7
					c2.2,0.1,3.9,1.6,6,1.6c1.6,0,2.9,0.3,4.4,0.5c2.7,0.4,5.5,1,8,2.1c2.9,1.3,5.8,2.1,8.7,3.3c3.2,1.3,6.3,2.8,9.5,4.2
					c3.6,1.5,7,3.4,10.4,5.2c1.3,0.7,3,1.1,4.5,1.5c1,0.3,1.1,0.5,2,1c0.7,0.4,2,0.3,2.5,1.1c-0.1,0-0.2,0.1-0.4,0.1"/>
				<path class="st10" d="M640,120.9c1.7,1.7,3.6,2.6,5.7,3.7c1.1,0.6,2.1,1.2,3.3,1.6c0.7,0.2,1.4,0.3,2,0.6
					c0.1,0.1,0.2,0.1,0.3,0.2c0.4,0.3,0.8,0.7,1.4,0.8"/>
				<path class="st10" d="M651.6,127.8c-0.3,2.1-2.1,3.7-3.1,5.4c-0.7,1.3-1,2.8-1.5,4.1c-0.5,1.2-1.2,2.4-1.8,3.6
					c0-0.1,0-0.2,0-0.4"/>
				<path class="st10" d="M638.4,128.9c2.2,0,4.4,0,6.6,0c1.3,0,1.8-0.5,3-0.9c0.8-0.3,2.5-0.3,3.4-0.9c0.1-0.1,0.3-0.2,0.3-0.3"/>
				<path class="st10" d="M732.6,164.3c-0.1,0-0.3-0.1-0.4-0.1c2.5-2.7,5.9-3.1,9.1-4.1c1.6-0.5,3.4-0.6,5-1.2
					c1.4-0.5,2.5-1.1,3.9-1.4c3.9-0.7,7.9-1.5,11.8-2.3c1.5-0.3,3.1-0.5,4.6-1c1.8-0.6,3.6-1.5,5.5-1.5c1.3,0,3,0.3,4.3,0
					c1.6-0.3,3.1-0.9,4.8-1.1c1.8-0.2,3.6-0.5,5.2-0.9c1.3-0.4,2.9-0.1,4.3-0.1c2.1,0,3.9-0.1,6-0.5c1.6-0.3,3.2-0.6,4.8-0.6
					c3.9,0,7.7,0.5,11.6,0.5c3.4,0,6.8,0,10.1,0c4.1,0,8.6,0.5,12.4,2.1"/>
				<path class="st10" d="M836.3,152.1c1.7,1.4,3.7,2.8,5.7,3.6c2.1,0.8,4.1,2.1,6.4,2.2c0-0.2,0.1-0.3,0.1-0.5"/>
				<path class="st10" d="M836.3,152.7c0,1.3,0,2.6,0,4c0,1.2-0.5,3.7,0.5,4.5"/>
				<path class="st10" d="M836.3,152.7c-0.4-1.2,1.6-1.8,2.3-2.4c1.1-0.8,2.3-1.5,3.5-2.3c2.1-1.3,4.4-2.3,6.9-2.2"/>
				<path class="st10" d="M658.5,184.9c0-3.2-0.6-6.9,0-10.1c0.6-3.6,6.3-2.1,8.5-0.9c1.6,0.8,2.3,2.7,4.2,3.1c1.4,0.3,3.3,0,4.8,0
					c1.9,0,3.8,0,5.7,0c1.6,0,2.9,0.3,4.5,0.5c4.1,0.6,8,1.8,12,2.8c1.7,0.4,3.4,0.4,5.1,0.4c2.1,0,3.4-1.1,5.3-1.5
					c2-0.4,4-0.9,6-1.6c1.7-0.6,3.6-0.8,5.3-1.3c1.7-0.5,2.9-1.8,4.4-2.7c1.9-1.1,3.5-4.5,5.2-5.8"/>
				<path class="st10" d="M730.8,165.2c0.6,0.6,1.4,0.7,2.1,1.2c0.8,0.5,1.5,1.2,2.3,1.8c1.5,1.1,3.5,2.5,5.4,2.8
					c3.7,0.6,8,0,11.8,0c2.2,0,4.4,0,6.7,0c2.2,0,4.7,0.3,6.8-0.3c3.5-0.9,7.4,0.5,10.9-0.4c3.1-0.8,6.5-0.1,9.7-1
					c1.5-0.4,2.9-0.5,4.4-1.1c1.8-0.7,3.6-1.8,5.4-2.5c2.2-0.9,8.4-1.5,9,1.6c0.2,1.3,0.7,2.6,0.9,3.9c0.1,0.3,0.1,0.6,0.2,0.9
					c0.1,0.8-0.1,1.6,0,2.4c0.2,1.1,0.5,1.8,0.5,2.9c0.1,3.9,0,7.7,0,11.6c0,2-0.1,4,0,6c0,0.3,0,0.5,0,0.8c0,1,1.5,4.7-0.5,4.9"/>
				<path class="st10" d="M659,184.9c0.1,0.6,0.5,1,0.6,1.6c0.1,0.5-0.1,1.1,0,1.6c0.1,1.2,0.7,1.9,1,3c0.6,2.6-0.4,5.4,0.2,7.9
					c0.6,2.3,1.6,4.8,2.5,7c0.2,0.6,0.7,1,1,1.5c0.3,0.7,0.2,1.4,0.6,2.2c0.7,1.2,2.2,2.5,3.3,3.2c0.8,0.5,1.4,0.5,2.1,1.1
					c0.5,0.4,1,1,1.5,1.5c1.4,1.3,3,1.4,4.8,2.1c1.3,0.5,2.4,1.4,3.8,1.6c1.6,0.2,3.5,0,5.1,0c1.2,0,2.5,0,3.7,0
					c0.7,0,1.5,0.1,2.1,0c1-0.2,1.4-0.7,2.2-1.1c1.2-0.6,2.5-0.8,3.7-1.2c0.8-0.2,1.4-0.5,2.1-0.9c1-0.6,2-0.9,3-1.4
					c1.4-0.6,2.5-1.7,3.9-2.3c1.3-0.6,2.2-1.5,3.4-2.1c2.5-1.4,5.6-1.9,8.1-3.1c1.6-0.8,3-2,4.6-2.8c1.3-0.6,2.2-1.7,3.4-2.4
					c2.3-1.3,5.2-0.6,7.4,0.3c2.3,0.9,4.4,0.9,6.7,1.3c1.4,0.2,2.8,0.6,4.1,0.9c1.7,0.4,3.4,1.2,5,1.5c2.7,0.5,5.5,0.7,8.3,0.6
					c1.3,0,2.3,0.2,3.6,0.4c0.8,0.1,1.5,0,2.2,0.1c0.9,0.1,1.7,0.5,2.7,0.6c1.8,0.1,3.5,0.5,5.3,0.5c1.4,0,2.8,0,4.2,0
					c3.4,0,6.7,0,10.1,0c1.9,0,3.3-0.4,5.1-0.9c1.8-0.6,3.7-0.9,5.4-1.6c2.5-1,5.2-2.5,7.8-2.9c0-0.1,0.1-0.3,0.1-0.4"/>
				<path class="st10" d="M626.2,183.9c0-0.2,0-0.4,0-0.6c0.1-1.2,1-2.5,1.1-3.8c0.1-1.1-0.2-2.3,0-3.4c0.2-1.4,1-2.9,1.6-4.2
					c0.6-1.1,0.9-2.4,1.6-3.4c2.7-4.5,9.4-7.5,14.3-4.9c1.4,0.7,2.1,1.8,2.5,3.3c0.3,1.2,0.9,2.4,1.1,3.6c0.5,2.5,1.1,5,1.9,7.4
					c0.4,1.2,1,2.3,1.2,3.5c0.1,0.5,0,1.1,0.2,1.6c0.2,0.5,0.7,0.9,1,1.4c1.2,2.6,1.8,5.6,5.3,6"/>
				<path class="st10" d="M626.2,182.3c0,0.3,0,0.6,0,1c0,0.8,0.1,1.7,0,2.5c-0.1,1.3-0.6,2.3-0.5,3.7c0,3.1,0,6.2,0,9.4
					c0,2.6-0.5,6,0.4,8.5c1.2,3.3,4.2,6.2,6.8,8.6c1.2,1.1,2.6,1.8,4,2.7c1.5,1,3.2,1.1,4.9,1.4c2.4,0.5,4.8,0.4,7.3,0.4
					c1.2,0,3,0.3,4.1-0.1c0.8-0.3,1.1-1,1.7-1.5c0.7-0.6,1.4-0.7,2.2-1.2c1.2-0.7,2.6-1.5,3.7-2.4c0.5-0.5,3.3-3,3.1-3.8
					c-0.2,0-0.3-0.1-0.5-0.1"/>
				<path class="st10" d="M807.7,171.2c0-0.1-0.1-0.2-0.1-0.3c-0.4-2.1,4.4-2.3,5.4-2.5c1-0.2,1.7-0.4,2.8-0.4c1.8,0,3.3-0.5,5-0.5
					c2.1-0.1,4.2,0,6.3,0c2.3,0,4.9-0.4,7.2,0.1c1.2,0.3,2,0.9,3,1.5c1.6,0.9,1.9,0.7,2.7,2.5c1,2.3,2,4.7,3,7
					c0.9,1.9,1.6,3.8,2.1,5.9c0.7,2.9,0.7,5.6,0.7,8.6c0,2.5,0,4.9,0,7.4c0,2.2,0.3,4.6-0.1,6.7c-0.8,4.4-2.5,8.5-3.8,12.7
					c-0.7,2.2-2,4.5-3.2,6.5c-0.8,1.4-1.3,2.1-2.8,2.7c-0.9,0.3-1.9,0.7-2.8,0.9c-2.7,0.5-4.8-0.5-6.6-2.4c-1-1-1.7-2-2.4-3.1
					c-1-1.4-2.3-2.7-3.2-4.2c-0.7-1.1-1.4-2.5-1.6-3.7c-0.2-1.3,0-2.9,0-4.2c0-2.9,0.5-6.2,0-9.1c-0.4-2.2-2.6-5.5-4.5-6.6
					c-2.1-1.3-5.2-1.6-7.6-1.6"/>
				<path class="st10" d="M749.5,35.2c-0.1-0.9,0.5-2,1.1-2.6"/>
				<path class="st10" d="M748.5,42.1c0,0.7,0,1.4,0,2.1"/>
			</g>
		</g>
	</g>
</g>
</svg>
